<?xml version="1.0" standalone="no"?>
<!DOCTYPE svg PUBLIC "-//W3C//DTD SVG 1.1//EN" "http://www.w3.org/Graphics/SVG/1.1/DTD/svg11.dtd">
<svg xmlns="http://www.w3.org/2000/svg">
<metadata>Generated by Fontastic.me</metadata>
<defs>
<font id="itonfontset3" horiz-adv-x="512">
<font-face font-family="itonfontset3" units-per-em="512" ascent="480" descent="-32"/>
<missing-glyph horiz-adv-x="512" />

<glyph unicode="&#57344;" d="M382 315c0-19 15-33 34-33 0 0-2 32 0 70-19 0-34-16-34-37z m-286 56z m320 2c0-2 0-2 0 0 0-2 0-2 0 0z m-286-58c0 21-15 37-34 37 2-38 0-70 0-70 19 0 34 14 34 33z m161 181l-70 0c-69 0-125-56-125-123 0-10 53-7 53-56 0-50-53-51-53-71 0-52 0-107 0-107 0-69 56-125 125-125l70 0c69 0 125 56 125 125 0 0 0 53 0 107 0 21-53 16-53 68 0 46 53 49 53 59 0 67-56 123-125 123z m-35-107c-10 0-18 8-18 17 0 10 8 18 18 18 10 0 18-8 18-18 0-9-8-17-18-17z"/>
<glyph unicode="&#57345;" d="M456 496l0-11c0-5-5-10-10-10l-16 0c-4 0-9 5-9 10l0 11-330 0 0-11c0-5-5-10-9-10l-16 0c-5 0-10 5-10 10l0 11-8 0 0-480 10 0c0 2 0 2 0 3l0 11c0 5 4 10 9 10l16 0c5 0 10-5 10-10l0-11c0-1 0-1 0-3l329 0c0 2 0 2 0 3l0 11c0 5 5 10 10 10l16 0c5 0 10-5 10-10l0-11c0-1 0-1 0-3l6 0 0 480z m-365-435c0-5-5-10-9-10l-16 0c-5 0-10 5-10 10l0 11c0 5 5 10 10 10l16 0c4 0 9-5 9-10z m0 43c0-5-5-10-9-10l-16 0c-5 0-10 5-10 10l0 11c0 5 5 10 10 10l16 0c4 0 9-5 9-10z m0 42c0-5-5-10-9-10l-16 0c-5 0-10 5-10 10l0 11c0 5 5 9 10 9l16 0c4 0 9-4 9-9z m0 43c0-5-5-10-9-10l-16 0c-5 0-10 5-10 10l0 11c0 5 5 10 10 10l16 0c4 0 9-5 9-10z m0 41c0-4-5-9-9-9l-16 0c-5 0-10 5-10 9l0 12c0 4 5 9 10 9l16 0c4 0 9-5 9-9z m0 44c0-5-5-10-9-10l-16 0c-5 0-10 5-10 10l0 11c0 5 5 9 10 9l16 0c4 0 9-4 9-9z m0 41c0-5-5-9-9-9l-16 0c-5 0-10 4-10 9l0 11c0 5 5 10 10 10l16 0c4 0 9-5 9-10z m0 42c0-5-5-10-9-10l-16 0c-5 0-10 5-10 10l0 11c0 5 5 10 10 10l16 0c4 0 9-5 9-10z m0 43c0-5-5-10-9-10l-16 0c-5 0-10 5-10 10l0 11c0 5 5 10 10 10l16 0c4 0 9-5 9-10z m0 42c0-5-3-10-9-10l-16 0c-5 0-10 5-10 10l0 11c0 5 5 9 10 9l16 0c4 0 9-4 9-9z m320-389l-310 0 0 184 310 0z m0 224l-310 0 0 185 310 0z m45-216c0-5-5-10-10-10l-16 0c-4 0-9 5-9 10l0 11c0 5 5 10 9 10l16 0c5 0 10-5 10-10z m0 43c0-5-5-10-10-10l-16 0c-4 0-9 5-9 10l0 11c0 5 5 10 9 10l16 0c5 0 10-5 10-10z m0 42c0-5-5-10-10-10l-16 0c-4 0-9 5-9 10l0 11c0 5 5 9 9 9l16 0c5 0 10-4 10-9z m0 43c0-5-5-10-10-10l-16 0c-4 0-9 5-9 10l0 11c0 5 5 10 9 10l16 0c5 0 10-5 10-10z m0 41c0-4-5-9-10-9l-16 0c-4 0-9 5-9 9l0 12c0 4 5 9 9 9l16 0c5 0 10-5 10-9z m0 44c0-5-5-10-10-10l-16 0c-4 0-9 5-9 10l0 11c0 5 5 9 9 9l16 0c5 0 10-4 10-9z m0 41c0-5-5-9-10-9l-16 0c-4 0-9 4-9 9l0 11c0 5 5 10 9 10l16 0c5 0 10-5 10-10z m0 42c0-5-5-10-10-10l-16 0c-4 0-9 5-9 10l0 11c0 5 5 10 9 10l16 0c5 0 10-5 10-10z m0 43c0-5-5-10-10-10l-16 0c-4 0-9 5-9 10l0 11c0 5 5 10 9 10l16 0c5 0 10-5 10-10z m0 42c0-5-5-10-10-10l-16 0c-4 0-9 5-9 10l0 11c0 5 5 9 9 9l16 0c5 0 10-4 10-9z"/>
<glyph unicode="&#57346;" d="M376 496l46 0 0-38 40 0 0 38 34 0 0-480-35 0 0 38-40 0 0-38-43 0 0 74-240 0 0-74-47 0 3 38-38 0-3-38-37 0 0 480 40 0 0-38 40 0 0 38 40 0 0-70 240 0z m85-216l0 40-40 0 0-38 40 0z m-83 90l-240 0 0-226 241 0z m83-181l0 38-40 0 0-38z m0-88l0 38-40 0 0-38z m-405 40l0-39 40 0 0 39z m0 86l0-38 40 0 0 38z m0 91l0-38 40 0 0 38z m0 88l0-38 40 0 0 38z m365 0l0-38 40 0 0 38z"/>
<glyph unicode="&#57347;" d="M376 496l46 0 0-38 40 0 0 38 34 0 0-480-35 0 0 38-40 0 0-38-43 0 0 74-240 0 0-74-47 0 3 38-38 0-3-38-37 0 0 480 40 0 0-38 40 0 0 38 40 0 0-70 240 0z m85-216l0 40-40 0 0-38 40 0z m-83 90l-240 0 0-226 241 0z m83-181l0 38-40 0 0-38z m0-88l0 38-40 0 0-38z m-405 40l0-39 40 0 0 39z m0 86l0-38 40 0 0 38z m0 91l0-38 40 0 0 38z m0 88l0-38 40 0 0 38z m365 0l0-38 40 0 0 38z"/>
<glyph unicode="&#57348;" d="M256 496c-128 0-232-104-232-232l0-248 77 0 0 45 65 0 0-45 58 0 0 45 64 0 0-45 59 0 0 45 66 0 0-45 75 0 0 248c0 128-104 232-232 232z m-62-192l-34 0 0-98-32 0 0 128 66 0z m190 0l-34 0 0-98-30 0 0 128 64 0z"/>
<glyph unicode="&#57349;" d="M445 438l-378 0c-29 0-51-22-51-51l0-262c0-29 22-51 51-51l376 0c29 0 51 22 51 51l0 262c2 29-20 51-49 51z m-11-27c11 0 20-9 20-21 0-11-9-20-20-20-12 0-21 9-21 20-2 12 8 21 21 21z m-72 0c11 0 20-9 20-21 2-12-8-22-20-22-13 0-21 10-21 21 0 13 9 22 21 22z m-141 0c11 0 21-9 21-21 0-11-10-20-21-20-11 0-21 9-21 20-2 12 8 21 21 21z m-71 0c12 0 21-9 21-21 0-11-9-20-21-20-12-2-22 8-22 19 0 13 10 22 22 22z m-72 0c12 0 21-9 21-21 2-12-8-22-21-22-11 0-20 10-20 21 0 13 9 22 20 22z m-22-75c0 6 5 10 10 10l214 0c6 0 10-5 10-10l0-163c0-7-5-10-10-10l-214 0c-7 0-10 5-10 10z m22-237c-11 0-20 10-20 21 0 11 9 21 20 21 12 0 21-10 21-21 2-11-8-21-21-21z m72 0c-11 0-20 10-20 21 0 11 9 21 20 21 12 0 21-10 21-21 0-11-9-21-21-21z m71 0c-11 0-21 10-21 21 0 11 10 21 21 21 11 0 21-10 21-21 0-11-10-21-21-21z m70 0c-11 0-21 10-21 21 0 11 10 21 21 21 11 0 21-10 21-21 2-11-8-21-21-21z m0 269c-11 0-21 10-21 21 0 11 10 21 21 21 11 0 21-10 21-21 2-11-8-21-21-21z m71-269c-12 0-21 10-21 21 0 11 9 21 21 21 11 0 20-10 20-21 2-11-8-21-20-21z m72 0c-12 0-21 10-21 21 0 11 9 21 21 21 11 0 20-10 20-21 0-11-9-21-20-21z m22 74c0-7-5-10-10-10l-115 0c-6 0-9 5-9 10l0 165c0 6 4 9 9 9l115 0c7 0 10-5 10-9z"/>
<glyph unicode="&#57350;" d="M101 330c3 3 1 9-2 11-6 3-73 35-77 37-4 3-6-2-6-7 0-3 19-96 19-101 2-4 7-6 8-3 5 3 55 59 58 63z m16 14l360 67c13 2 21 15 17 26l-6 32c-2 13-14 21-26 17l-424-78c-8-2-16-8-17-16 29-14 88-43 94-46 0 0 2 0 2-2z m-74-298c0-11 10-20 21-20l405 0c11 0 21 9 21 20l0 189-448 0 0-189z m29 160l387 0 0-152-387 0z m397 109l-367 0c-17-19-46-51-59-65l448 0 0 44c0 12-9 21-22 21z"/>
<glyph unicode="&#57351;" d="M234 405l-56 49-58-4 56-50z m-42-82l40 47-56 0-40-47z m197 95l-56 49-58-5 56-49z m107 28l-2 13 0 2c-1 11-11 19-22 17l-42-3 55-48c6 5 11 11 11 19z m-478-38c1-13 11-21 22-19l38 3-52 46c-7-3-10-9-10-17l0-2z m267-85l56 0 40 47-56 0z m-200 47l-48 0c-11 0-21-10-21-21l0-26 27 0z m-69-316c0-11 10-20 21-20l438 0c11 0 21 9 21 20l0 252-480 0z m78 173l324 0c4 0 8-3 8-8 0-5-4-8-8-8l-324 0c-4 0-8 3-8 8 0 3 4 8 8 8z m0-51l324 0c4 0 8-3 8-8 0-5-4-8-8-8l-324 0c-4 0-8 3-8 8 0 5 4 8 8 8z m0-53l324 0c4 0 8-3 8-8 0-5-4-8-8-8l-324 0c-4 0-8 3-8 8 0 5 4 8 8 8z m381 247l-41-47 62 0 0 26c0 11-10 21-21 21z"/>
<glyph unicode="&#57352;" d="M416 485c-18 11-37 11-42 11-1 0-1 0-1 0l-239 0 0-22 239 0c0 0 0 0 1 0 4 0 20 0 31-8 13-8 24-20 24-50 0-328 0-328 0-328l22 0c0 0 0 0 0 328 0 35-17 58-35 69z m-70-40l-229 0c-31 0-56-26-56-56l0-319c0-30 25-56 56-56l229 0c30 0 56 26 56 56l0 320c0 31-26 55-56 55z m33-373c0-18-14-34-33-34l-229 0c-18 0-34 15-34 34l0 318c0 18 15 34 34 34l229 0c17 0 33-14 33-34z m-197 182l-32-64-3 64-25 0-20-91 18 0 13 77 3-77 18 0 36 77-17-77 17 0 20 91z m152 2c-8 0-14-3-20-8-4-3-7-10-8-16l16-3c1 5 3 8 4 9 2 2 5 4 7 4 3 0 5-2 6-4 2-1 3-4 3-6 0-5-1-8-3-10-3-3-6-3-11-3 0 0-2 0-2 0l-3-14c2 0 2 0 3 0 4 0 7-2 8-3 2-2 4-5 4-10 0-5-2-8-5-11-3-3-7-5-10-5-3 0-5 2-8 3-3 2-3 5-3 10l-18-2c2-8 5-14 10-19 5-5 11-6 19-6 10 0 19 3 26 11 5 6 6 11 6 19 0 3-1 6-3 10-2 3-5 6-8 8 5 1 8 4 11 8 3 3 5 8 5 12 0 7-2 13-6 18-5 5-12 8-20 8z m-54-3c-3 1-10 1-16 1l-37 0-19-91 19 0 8 35 13 0c8 0 14 0 16 0 5 0 10 2 13 4 3 1 6 3 8 6 3 3 5 6 6 11 2 5 3 10 3 13 0 5-1 10-3 13-3 3-6 6-11 8z m-8-32c-2-3-5-5-8-7-3-1-10-1-19-1l-7 0 5 27 13 0c6 0 10 0 11-2 2 0 3-1 5-3 2-1 2-3 2-5 0-3 0-6-2-9z"/>
<glyph unicode="&#57353;" d="M317 160l-82 56 0-112z m144 330l-410 0c-19 0-35-16-35-36l0-398c0-19 16-35 35-35l411 0c20 0 36 16 36 35l0 398c-2 20-18 36-37 36z m-335-368l-62 0 0 20 61 0z m130-53c-51 0-93 41-93 93 0 51 42 92 93 92 51 0 93-41 93-92 0-52-42-93-93-93z m0 201c-50 0-93-33-106-80l-84 0 0 250 382 0 0-250-85 0c-14 47-57 80-107 80z m192-148l-61 0 0 20 61 0z"/>
<glyph unicode="&#57354;" d="M496 171c-3 90-85 128-104 136 21 16 35 42 35 69 0 48-38 86-86 86-48 0-87-38-87-86 0-29 13-53 34-69-14-6-102-45-106-136-1-24 2-37 20-51 6 38 19 90 44 125 0 0-38-111-33-139 3-20 13-60 123-58 112-2 120 38 123 58 5 28-33 139-33 139 25-35 38-88 44-125 23 14 26 27 26 51z m-310 69c-4 13-7 21-7 21 3-5 7-11 10-16 5 9 9 16 14 21-17 22-41 33-49 36 14 10 24 28 24 47 0 32-26 56-56 56-31 0-56-26-56-56 0-19 9-35 22-45-13-6-70-32-72-91 0-16 2-24 13-34 5 26 13 59 30 83 0 0-25-72-22-91 1-13 8-38 81-38 24 0 40 1 53 6-8 43 3 77 15 101z"/>
<glyph unicode="&#57355;" d="M45 438c0-6 1-11 6-14l381-374c5-4 10-7 14-7 7 0 12 2 15 7 5 3 6 8 6 14 0 6-1 11-6 14l-381 375c-3 5-8 6-14 6-7 0-12-1-15-6-5-3-6-8-6-15z m56-209l0 51c0 6 1 11 6 14 5 5 10 7 15 7 6 0 11-2 14-7 6-3 8-8 8-14l0-51c0-29 10-53 30-74 21-21 45-30 74-30 19 0 37 5 51 13l31-31c-18-11-39-19-60-22l0-21 66 0c6 0 11-2 14-6 5-5 7-10 7-15 0-6-2-11-7-14-4-5-9-7-14-7l-173 0c-6 0-11 2-14 7-5 5-7 9-7 14 0 7 2 11 7 15 5 4 9 6 14 6l66 0 0 21c-24 3-45 11-64 24-19 13-35 30-47 51-11 22-17 45-17 69z m70 3l0 35 107-105c-9-5-19-7-30-7-21 0-40 8-54 23-16 14-23 32-23 54z m0 171l0 8c0 21 8 40 23 55 14 14 33 22 54 22 22 0 40-8 56-22 14-15 22-34 22-55l0-160z m183-179c0 0 0 2 0 3 0 2 0 2 0 3l0 52c0 6 1 11 6 14 5 5 10 6 14 6 7 0 12-1 15-6 5-5 6-10 6-14l0-52c0-12-1-27-6-41z"/>
<glyph unicode="&#57356;" d="M365 338c43 0 80 35 80 80 0 43-35 80-80 80-43 0-80-36-80-80 0-45 35-80 80-80z m0-21c-39 0-71-23-87-53 0 38-30 69-68 69-28 0-50-15-61-37l0 14c0 28-21 48-48 48-27 0-48-20-48-48l0-102 88 0 0-91 128 0 0-101 192 0 0 205c0 53-43 96-96 96z m-266 51c23 0 40 18 40 40 0 22-17 40-40 40-22 0-38-18-38-40 0-22 17-40 38-40z m111-21c32 0 57 26 57 58 0 32-25 57-57 57-32 0-58-25-58-57 0-32 26-58 58-58z"/>
<glyph unicode="&#57357;" d="M38 206l434 0c11 0 22 10 22 23l0 107c0 0 0 2 0 2l-476 0c0 0 0-2 0-2l0-107c0-13 9-23 20-23z m375 82l46 0 0-24-46 0z m-368 0l325 0 0-24-325 0z m363 184l-301 0-86-120 475 0z m-128-338l0 53-46 0 0-53z m10-9l-66 0c-11 0-22-10-22-23l0-41c0-11 9-23 22-23l66 0c11 0 22 10 22 23l0 41c-2 13-11 23-22 23z m-274-37l0-14c0-12 10-23 22-23l157 0 0 58-157 0c-12 1-22-8-22-21z m458 22l-157 0 0-57 157 0c11 0 22 9 22 22l0 15c0 11-10 20-22 20z"/>
<glyph unicode="&#57358;" d="M266 82l0 28c102 5 182 90 182 192 0 108-85 194-192 194-10 0-21-2-30-2-10-9-26-30-24-30-7-6-12-13-16-21-24-38-39-88-39-139 0-35 7-69 18-98 9-25 24-48 40-65l22-29c5 0 10-2 15-2l0-28c-13-5-23-18-23-32 0-20 15-34 34-34 19 0 33 14 33 34 2 14-8 27-20 32z m160 220c0-80-56-147-130-164 37 35 61 97 61 166 0 67-23 126-58 163 74-19 127-85 127-165z m-160 167c41-27 70-91 70-165 0-75-29-139-70-166z m-24-333c-44 26-74 91-74 168 0 77 30 142 74 168z m-178 155c0-1 0-5 0-6 0-2 0-2 0-3 0-2 0-5 2-7 0-1 0-1 0-3 0-3 1-6 1-8l0-2c0-1 2-4 2-6 0-2 0-2 1-3 0-2 2-3 2-5 0-2 0-2 2-3 0-2 1-3 1-5 0-2 0-2 2-3 1-3 1-5 3-8 0-2 2-2 2-3-2-2-2-4 0-5 0-2 1-2 1-3 0-2 2-4 2-5 0-2 1-2 1-3 0-2 2-4 2-4 2-1 2-3 3-4 2-2 2-4 3-5 2-2 4-3 4-5 0-2 1-2 1-3 2-2 2-3 3-3 0-2 2-2 2-4 2-1 2-3 3-3l2-1c3-4 5-7 8-10 1-2 3-3 5-5l1-1c3 0 3-2 5-4l2-1c6-7 14-11 22-16 0 0 0 0 2 0 1-2 3-2 6-3 8-5 16-10 26-13-42 43-69 107-69 179 0 70 25 134 67 178-2 0-3-2-5-2-1 0-1 0-3-2-6-3-11-4-18-8l-1-1c0 0-2-2-3-3-2 0-2 0-4-2-1 0-3-2-4-2 0-1-2-1-2-3-2 0-3-1-5-3l-1-2c-4-1-7-3-8-6-2 0-2 0-2-2-2 0-3-1-5-3l-1-1c-2-2-4-4-4-4-1-1-1-3-3-3-1-1-1-3-3-3 0-2-2-3-3-3 0-2-2-3-2-3-1-4-3-5-5-7 0-1-1-1-1-3-2-2-3-3-3-3-2-2-2-3-4-3 0-2-1-4-1-5 0-2-2-2-2-3-1-2-3-4-3-5 0-2-2-2-2-3-1-2-3-4-3-5 0 0 0-2-1-2-2-3-2-6-4-8 0-1 0-1-1-3 0-2-2-3-2-5 0-1 0-1-1-3 0-2-2-3-2-5 0-1 0-1-2-3 0-2-1-5-1-6l0-2c0-3-2-6-2-8l0-2c0-1-1-4-1-6 0-2 0-2 0-3 0-2 0-3 0-7 0-1 0-1 0-3 0-1 0-5 0-6 0-2 0-2 0-3 0-4 0-7 0-10 0-3 0-6 0-10-2-1-2-1-2-3z m381-227l-119 0c-8 0-14-6-14-14 0-8 6-15 14-15l119 0c8 0 14 7 14 15 0 8-6 14-14 14z m-259 0l-119 0c-8 0-14-6-14-14 0-8 6-15 14-15l119 0c8 0 14 7 14 15 0 8-6 14-14 14z"/>
<glyph unicode="&#57359;" d="M437 194c32 0 59 27 59 59 0 32-27 59-59 59-29 0-53-21-58-48l-155 0 80 152 75 0c7-24 31-43 56-43 34 0 61 27 61 59 0 32-27 59-59 59-31 0-55-22-58-51l-88 0-93-174-64 0c-4 27-28 48-57 48-32 0-59-28-59-60 0-32 27-59 59-59 29 0 51 19 57 47l68 0 89-168 88 0c5-29 29-52 58-52 32 0 59 28 59 60 0 32-27 59-59 59-27 0-50-18-56-43l-77 0-77 144 151 0c8-28 30-48 59-48z"/>
<glyph unicode="&#57360;" d="M475 142l-80 0c-11 0-21-9-21-20l0-53c0-11 10-21 21-21l80 0c11 0 21 10 21 21l0 53c0 11-10 20-21 20z m-179 0l-80 0c-11 0-21-9-21-20l0-53c0-11 10-21 21-21l80 0c11 0 21 10 21 21l0 53c0 11-10 20-21 20z m-218 23c7 0 12 5 12 11l0 38c0 7 4 12 11 12l145 0 0-55c0-6 5-11 12-11 6 0 11 5 11 11l0 55 145 0c7 0 12-5 12-12l0-38c0-6 4-11 11-11 6 0 11 5 11 11l0 38c0 18-14 32-32 32l-146 0 0 32c0 7-4 12-11 12-6 0-11-5-11-12l0-32-149 0c-17 0-32-14-32-32l0-38c2-6 7-11 11-11z m39-23l-80 0c-11 0-21-9-21-20l0-53c0-11 10-21 21-21l80 0c11 0 21 10 21 21l0 53c0 11-10 20-21 20z m53 173l172 0c12 0 21 10 21 21l0 109c0 11-9 21-21 21l-172 0c-12 0-21-10-21-21l0-109c0-11 9-21 21-21z m41 107l88 0c5 0 8-3 8-8 0-4-3-6-6-6l-88 0c-5 0-8 3-8 8 0 3 3 6 6 6z m0-38l88 0c5 0 8-3 8-8 0-5-3-6-6-6l-88 0c-5 0-8 3-8 8 0 4 3 6 6 6z"/>
<glyph unicode="&#57361;" d="M334 267c-11 16-17 35-17 56 0 8 1 15 1 21l-304 0 220-144z m-100-83l-76 50-129-130 408 0-130 130z m-221 144l0-224 134 136z m331-72l-24-16 134-134 0 128c-11-7-25-10-38-10-29 0-54 13-72 32z m126 64l29 10-32 3 27 16-30-3 22 20-30-9 19 25-25-16 14 26-24-21 6 31-17-24 0 30-13-30-6 30-7-30-13 27 0-32-19 25 7-30-23 21 13-29-27 16 17-24-28 10 24-21-32 3 27-14-31-4 34-6-30-10 30-3-27-14 30 3-24-21 29 10-18-24 28 16-13-29 22 21-6-31 17 26 0-30 13 28 7-30 6 30 13-28 0 30 17-26-6 31 22-21-12 29 27-16-19 25 28-9-22 21 30-4-27 16 31 4z m-51-40l-16 0 0 58c-6-5-13-10-19-12l0 15c3 1 8 3 13 8 5 3 8 8 9 13l13 0z"/>
<glyph unicode="&#57362;" d="M490 434l-423 0 0-317c0-7-6-13-13-13-6 0-12 6-12 13l0 278c0 5-2 5-5 5l-15 0c-3 0-6-2-6-6l0-309c0-3 3-7 6-7l468 0c3 0 6 4 6 7l0 342c0 3-3 7-6 7z m-386-40l357 0 0-61-357 0z m94-282l-99 0 0 19 99 0z m0 34l-99 0 0 19 99 0z m0 32l-99 0 0 19 99 0z m0 33l-99 0 0 19 99 0z m0 32l-99 0 0 19 99 0z m0 34l-99 0 0 19 99 0z m135-165l-99 0 0 19 99 0z m0 34l-99 0 0 19 99 0z m0 33l-99 0 0 19 99 0z m0 37l-99 0 0 78 99 0z m133-104l-100 0 0 19 100 0z m0 34l-100 0 0 19 100 0z m0 33l-100 0 0 19 100 0z m0 37l-100 0 0 78 100 0z"/>
<glyph unicode="&#57363;" d="M472 467l-432 0c-13 0-24-11-24-24l0-374c0-13 11-24 24-24l432 0c13 0 24 11 24 24l0 374c0 13-11 24-24 24z m-355-43c6 0 13-6 13-13 0-6-7-13-13-13-7 0-13 7-13 13 0 7 6 13 13 13z m-35 0c6 0 12-6 12-13 0-6-6-13-12-13-7 0-13 5-13 13 0 7 5 13 13 13z m-37 0c6 0 13-6 13-13 0-6-7-13-13-13-8-1-13 5-13 13 0 7 5 13 13 13z m437-362l-452 0 0 324 450 0z m-250 32l48 0 0 103 102 0 0 48-102 0 0 102-48 0 0-102-102 0 0-48 102 0z"/>
<glyph unicode="&#57364;" d="M355 496l-198 0-141-141 0-198 141-141 198 0 141 141 0 198z m-21-371l-78 78-77-77-53 53 77 77-77 77 53 53 77-77 78 78 53-53-78-78 78-78z"/>
<glyph unicode="&#57365;" d="M256 496c-133 0-240-107-240-240 0-133 107-240 240-240 133 0 240 107 240 240 0 133-107 240-240 240z m0-440c-110 0-200 90-200 200 0 48 18 91 45 126l81-81-6-18c-10 5-21 8-32 8-37 0-67-30-67-67 0-37 30-67 67-67 37 0 67 30 67 67 0 22-11 42-27 53l3 9c0 0 66-73 71-80 0-1-2-3-2-4 0-5 3-8 8-10l5-16-3 0 0-5 16 2 0 5-5 0-5 16c3 1 5 4 5 8l5 1 102-102c-37-27-80-45-128-45z m5 163l-23 26 23-23z m69-6l28 6c2-1 4-3 7-3 5 0 8 3 8 8 0 3-2 6-5 8l-32 42c8 4 19 8 29 8 32 0 57-26 57-58 0-29-20-51-46-56z m28 14l-36-6-13 13c3 12 9 25 19 33z m-57 15l-13 12 14 47 20-26c-10-8-18-21-21-33z m-21 20l-43 44 56 0z m-136-46c5 0 8 3 8 8 0 0 0 0 0 2 8 6 21 17 26 32l4 11c13-11 21-26 21-43 0-32-25-58-57-58-32 0-60 24-60 56 0 32 26 58 58 58 10 0 19-4 27-8l-5-13c-4-13-16-24-22-29 0 0 0 0-2 0-4 0-8-3-8-8 2-5 7-8 10-8z m267-85l-29 29c29 8 48 34 48 64 0 37-30 67-67 67-13 0-25-3-35-9l-24 32 3 9 24 11-3 5-51-3c0 0-5 0-5-3 0-2 26-10 26-10l-2-6-67 0-23 19 2 5-8 8 3 3 26 0 0 8-29-2-10-6-59 59c34 27 77 45 125 45 110 0 200-90 200-200 0-48-18-91-45-125z"/>
<glyph unicode="&#57366;" d="M256 496c-133 0-240-107-240-240 0-133 107-240 240-240 133 0 240 107 240 240 0 133-107 240-240 240z m0-430c-106 0-190 84-190 190 0 42 12 80 35 110l265-265c-30-23-68-35-110-35z m155 80l-265 265c32 23 68 35 110 35 106 0 190-84 190-190 0-42-12-80-35-110z m-102-24l1 0c7 0 13 3 18 8l-40 40 0-26c0-13 10-22 21-22z m-192 150l25 0c0-2-1-5-1-6l0-122c0-11 9-21 21-21l1 0c11 0 21 10 21 21l0 61 69 0-109 109-27 0c-11 0-21-10-21-21 0-11 10-21 21-21z m286 29c-49 51-49 51-49 51l0 34-71-71-30 0 80-80 0 42 70 0c0 0 10 0 11 9-1 5-9 12-11 15z"/>
<glyph unicode="&#57367;" d="M101 440c-101-86-114-237-29-339 85-101 237-114 338-29 100 85 113 237 28 338-84 102-235 115-337 30z m17-301c-59 69-56 168 0 235l231-272c-75-46-173-32-231 37z m276-1l-231 272c75 46 173 32 231-37 59-69 56-168 0-235z"/>
<glyph unicode="&#57368;" d="M256 496c-133 0-240-107-240-240 0-133 107-240 240-240 133 0 240 107 240 240 0 133-107 240-240 240z m0-440c-110 0-200 90-200 200 0 48 18 91 45 126l64-64 0-206 61 0 0 107 38 0 118-118c-35-27-78-45-126-45z m27 214l-11 0-45 45 0 42 48 0c18 0 32-3 40-10 10-6 13-17 13-33 0-28-14-44-45-44z m128-139l-91 91c18 4 32 12 43 24 18 18 26 42 26 71 0 27-8 49-24 67-16 18-39 26-67 26l-135 0 0-32-32 33c34 27 77 45 125 45 110 0 200-90 200-200 0-48-18-91-45-125z"/>
<glyph unicode="&#57369;" d="M392 208l16 0 0 42-16 0z m-21 0l15 0 0 42-15 0z m27 82c0-32 0-32 0-32l8 0c0 0 0 0 0 32 0 24-9 38-20 44-12 7-23 7-26 7 0 0-14 0-26 0 2 1 2 3 2 3 2 5 2 10 2 14 0 4 0 5 0 8 0 18-7 28-15 34-8 6-16 8-19 8-5 0-10 0-13-2l0 20-8 0c0 0 0-2 0-2 0 0 0 0-1 0-20 0-31-8-36-16-6-10-6-19-6-24 0-21 6-32 14-37 7-5 12-6 15-6l9 0c0-18 7-27 13-34 7-6 13-6 13-6 0 0 10 0 46 0 0 0 2 0 2 0 11 0 16-5 19-10 3-5 3-11 3-13l0-20 8 0 0 20c0 4 0 10-4 18-4 8-13 14-28 14 0 0-1 0-1 0-32 0-43 0-45 0-3 2-16 4-18 31l4 0 0 8-7 0c0 0-1 0-1 0 0 0-2 0-2 0l-11 0c0 0-5 0-10 5-5 4-11 12-11 30 0 3 0 11 5 18 5 8 11 14 27 14 0 0 2 0 2 0l0-18 8-1c0 0 1 3 12 3 4 0 10-2 15-6 6-5 11-13 11-28 0-3 0-4 0-8 0-4 0-8-2-11-1-3-3-5-8-8l2-8c8 0 34 0 37 0 3 0 13 0 22-5 11-4 19-14 19-36z m-142 206c-133 0-240-107-240-240 0-133 107-240 240-240 133 0 240 107 240 240 0 133-107 240-240 240z m0-430c-106 0-190 84-190 190 0 42 12 80 35 110l117-116-124 0 0-42 165 0 107-107c-30-23-68-35-110-35z m155 80l-64 62 18 0 0 42-59 0-160 160c32 22 68 35 110 35 106 0 190-85 190-191 0-40-12-78-35-108z"/>
<glyph unicode="&#57370;" d="M435 106c-11 11-24 17-38 24-15 6-29 11-43 17-8 3-16 10-20 19-1 5 0 7 4 10 16 13 27 29 33 48 2 5 3 8 8 10 2 0 3 3 5 4 8 10 8 21 5 32-2 4-3 7-7 8-3 2-4 5-4 8 0 12-2 21-2 32-3 21-14 36-34 44-1 3-6 4-11 6 2-8 3-16 3-26 0-59-40-110-96-124 7-16 18-29 31-40 5-4 6-8 3-13-2-3-3-7-5-8-6-5-13-8-19-11-21-10-43-15-62-29-8-5-18-11-23-18-5-5-3-13-11-19 0-6 0-13 0-19 10-2 5-3 5-7 1-11 9-19 19-22 5-2 13-2 18-3 48 0 97 0 145 0 29 0 58 0 85 1 11 0 21 10 22 21 2 8 2 18 2 26 2 11-3 21-13 29z m-243 377c-72 0-130-57-130-129 0-72 60-130 130-130 72 0 130 58 130 130 0 72-58 129-130 129z m0-243c-62 0-112 51-112 114 0 62 50 113 112 113 62 0 114-51 114-113 0-63-52-114-114-114z m-19-133c0 0-10-6-13-13-10-16-21-48 19-64 0 0 15 23 16 23 2 0 2 35 2 35z m70 199l-13-13c-1-2-6-2-8 0l-35 35-35-35c-2-2-6-2-8 0l-13 13c-1 1-1 6 0 8l35 35-33 35c-2 2-2 6 0 8l11 11c2 2 6 2 8 0l35-35 35 35c2 2 7 2 8 0l13-13c2-1 2-6 0-8l-35-33 35-35c3-4 3-7 0-8z"/>
<glyph unicode="&#57371;" d="M394 19l-276 0c-16 0-30 13-30 31l0 366c0 16 14 30 30 30l77 0 0-32-61 0c-8 0-16-6-16-14l0-334c0-8 7-15 16-15l244 0c8 0 16 7 16 15l0 334c0 8-7 14-16 14l-61 0 0 32 77 0c16 0 30-14 30-30l0-366c0-16-14-31-30-31z m-199 306l168 0 0-15-168 0z m0-47l168 0 0-14-168 0z m-46 47l14 0 0-15-14 0z m0-47l14 0 0-14-14 0z m198 120c8 0 16-6 16-16 0-8 0-28 0-28l-214 0c0 0 0 20 0 28 0 8 6 16 14 16l47 0c0 0 0 21 0 47 0 25 19 46 44 46 26 0 47-22 47-46 0-27 0-47 0-47z m-91 48c-8 0-16-6-16-14 0-8 8-16 16-16 8 0 16 6 16 14 0 10-8 16-16 16z m-78-313l-4-27-3-28 27 4 28 3z m54-23l-8 8 70 71-16 16-70-71-8 8 70 71-8 8-78-79 46-46 79 78-8 8z m104 101l-32 32c-5 5-11 5-16 0 0 0 0 0 0-1l-16-15 46-46 15 14c0 0 0 0 1 0 5 5 5 11 2 16z"/>
<glyph unicode="&#57372;" d="M405 461l0 35-29 0 0-35-26 0 0 35-28 0 0-35-26 0 0 35-29 0 0-35-25 0 0 35-29 0 0-35-26 0 0 35-29 0 0-35-22 0 0 35-29 0 0-35-25 0 0-445 348 0 0 445z m-26-381l-246 0 0 18 245 0 0-18z m0 67l-246 0 0 18 245 0 0-18z m0 66l-246 0 0 17 245 0 0-17z m0 67l-246 0 0 18 245 0 0-18z m0 66l-246 0 0 17 245 0 0-17z"/>
<glyph unicode="&#57373;" d="M256 496c-133 0-240-107-240-240 0-133 107-240 240-240 133 0 240 107 240 240 0 133-107 240-240 240z m0-440c-110 0-200 90-200 200 0 48 18 91 45 126l64-64-10 0c-5 0-8-4-9-9l-20-40-20 0c-5 0-8-3-8-8l0-48-12 0 0-11 37 0c2-15 15-26 29-26 14 0 27 11 29 26l22 0 0 9 69 0 109-109c-34-28-77-46-125-46z m155 75l-57 58c3 5 4 9 4 14 0 2 0 5-1 7l38 0 0 132-197 0-67 69c34 27 77 45 125 45 110 0 200-90 200-200 0-48-18-91-45-125z"/>
<glyph unicode="&#57374;" d="M288 254c0 4-3 7-6 7l-13 0 0-15 13 0c4 2 6 5 6 8z m-53-67c-3 0-6-1-8-5-1-3-3-9-3-14 0-5 0-10 2-14 1-5 4-7 8-7 8 0 11 7 11 19 0 15-3 21-10 21z m-13-75l-12 0 0-14 12 0c4 0 7 3 7 6 0 5-3 8-7 8z m269-26c-13 23-200 346-213 367-11 17-35 17-46 0-16-27-202-351-211-367-11-20 3-40 22-40l424 0c23 0 34 23 24 40z m-198 282c17 0 29-14 29-35 0-21-12-35-29-35-16 0-29 14-29 35 0 21 11 35 29 35z m-32-98l19 0c10 0 16-6 16-16 0-6-2-9-8-14l10-26-10 0-8 26-10 0 0-24-8 0 0 54z m41-75l0-54-8 0-20 37 0-37-8 0 0 54 8 0 19-35 0 35z m-104 171l12 0 30-46 0 46 11 0 0-68-9 0-32 48 0-48-12 0z m31-144c6 0 9 5 9 12l0 36 8 0 0-36c0-12-8-20-17-20-7 0-13 4-16 10-2 3-3 6-3 10l0 36 8 0 0-36c0-7 4-12 11-12z m-29 40l-13 0 0-46-8 0 0 46-13 0 0 8 34 0z m29-196l-10 24-9 0 0-24-8 0 0 54 19 0c9 0 16-6 16-16 0-6-2-10-8-14l9-26-9 0z m6 73c-5 0-11 3-13 7-1 3-3 6-4 11 0 3-2 8-2 11 0 19 6 29 19 29 5 0 11-3 15-7 3-4 4-12 4-20 0-10-1-16-4-21-4-7-10-10-15-10z m50-73l-34 0 0 54 32 0 0-8-22 0 0-14 16 0 0-8-16 0 0-16 25 0 0-8z m24 0l-15 0 0 54 16 0c12 0 21-11 21-27 0-16-9-27-22-27z m35 150l-8 0-21 37 0-37-8 0 0 54 8 0 19-35 0 35 8 0z m-34-104l-8 0 0-38 8 0c8 0 13 8 13 19 0 13-5 19-13 19z m-17 197c9 0 16 9 16 24 0 14-7 24-16 24-10 0-16-10-16-24-2-15 5-24 16-24z"/>
<glyph unicode="&#57375;" d="M294 219c12 0 20 10 20 26 0 16-8 25-18 25-11 0-19-11-19-25 0-15 6-26 17-26z m-33-54l-16 0 0-18 16 0c5 0 8 3 8 8-2 7-5 10-8 10z m232-80c-15 24-202 349-215 369-11 18-35 18-46 0-16-27-203-352-213-368-11-20 3-40 23-40 16 0 403 0 425 0 24-1 35 21 26 39z m-197 200c19 0 32-16 32-40 0-24-13-40-32-40-19 0-32 16-32 40 0 24 13 40 32 40z m-107 0l13 0 35-51 0 51 13 0 0-77-10 0-37 54 0-54-13 0 0 77z m-32-119l-16 0 0-59-11 0 0 59-16 0 0 10 41 0z m57-35c0-16-9-25-24-25-8 0-16 4-20 11-2 3-4 8-4 13l0 46 12 0 0-46c0-8 4-15 12-15 8 0 13 5 13 15l0 46 11 0z m55-24l-11 31-13 0 0-31-11 0 0 69 24 0c12 0 20-8 20-19 0-8-3-13-11-18l11-32z m70 0l-9 0-28 48 0-48-11 0 0 69 13 0 26-45 0 45 11 0 0-69z m34-3c-8 0-16 3-23 8-1 2-4 5-8 6l-1 2 9 6 2-1c6-7 11-10 19-10 8 0 15 5 15 10 0 5-4 8-15 9-13 4-17 5-21 12-1 3-3 6-3 9 0 11 10 19 23 19 6 0 12-1 20-6 4-2 5-3 7-5l-10-8c-6 7-11 8-17 8-7 0-12-3-12-8 0-5 2-6 10-8l6-1c13-4 15-5 18-10 2-3 3-6 3-11 3-11-8-21-22-21z"/>
<glyph unicode="&#57376;" d="M234 418c-13 0-24-12-24-24 0-13 11-24 24-24 12 0 24 11 24 24-2 14-12 24-24 24z m22 78c-133 0-240-107-240-240 0-133 107-240 240-240 133 0 240 107 240 240 0 133-107 240-240 240z m0-440c-110 0-200 90-200 200 0 48 18 91 45 126l91-91-30-19 8-11 36 16 32-32-22-39-24-89 27-8 27 83 21 21 42-106 22 8-11 48 62-62c-35-27-78-45-126-45z m155 75l-109 109c5 21 0 51-11 82 5-2 13-5 18-7l6-59 15 0 0 70c0 0-20 13-40 26-16 10-36 18-47 13-13-5-21-24-25-40l-87 86c34 27 77 45 125 45 110 0 200-90 200-200 0-48-18-91-45-125z"/>
<glyph unicode="&#57377;" d="M222 314c-32 0-57-26-57-58 0-32 25-58 57-58 32 0 58 26 58 58 0 32-26 58-58 58z m0-103c-25 0-44 21-44 45 0 26 20 45 44 45 26 0 45-21 45-45 2-26-19-45-45-45z m208 45c0 115-92 208-206 208-114 0-208-94-208-208 0-114 93-206 206-206 37 0 71 9 100 25 17-14 41-24 67-24 59 0 105 48 105 106 2 45-25 83-64 99z m-208-78c-43 0-78 35-78 78 0 43 35 78 78 78 44 0 79-35 79-78 0-43-35-78-79-78z m168-111c-19 0-38 7-52 18-4 1-5 3-8 6 0 0 0 0-2 2-2 1-5 3-6 6 0 0 0 0-2 2-2 1-2 1-3 3 0 2-2 2-2 3-1 2-1 3-3 5 0 2-2 2-2 3 0 2-1 2-1 3-2 2-2 4-3 7 0 1 0 1-2 3 2-3 0 0 0 2 0 0 0 1 0 1 0 2-2 5-2 7 0 0 0 1 0 1 0 3-1 5-1 8 0 0 0 2 0 2 0 3 0 5 0 8 0 49 40 89 89 89 4 0 5 0 8 0 0 0 2 0 2 0 2 0 5 0 6-1 2 0 2 0 4 0 1 0 3 0 4-2 2 0 4-1 5-1 0 0 0 0 2 0 3-2 6-2 8-4 30-14 51-46 51-81 0-50-40-90-90-90z m68 90l-47 0c0-5-1-8-3-11-2-4-3-5-8-7l26-40c11 7 19 15 24 24 6 10 8 21 8 34z m-68 11c-6 0-11-5-11-11 0-7 5-11 11-11 7 0 12 4 12 11 0 6-5 11-12 11z m-19-22c-1 3-1 8-3 11l-46 0c-2-13 1-24 6-34 5-9 13-17 24-24l26 40c-4 2-5 3-7 7z m18 33c3 0 8-1 11-3l22 40c-11 6-20 10-33 10-11 0-23-4-34-10l24-40c3 3 7 3 10 3z"/>
<glyph unicode="&#57378;" d="M179 235c2-14 3-30 10-41 6-12 14-16 25-24l-88-141c-38 22-67 49-86 86-19 37-27 77-24 120z m114 71c-13 6-29 11-40 11-13 0-21-5-34-11l-83 144c37 22 75 35 117 35 41 0 80-13 117-35z m-37-29c22 0 40-18 40-40 0-23-18-40-40-40-22 0-40 17-40 40 0 22 18 40 40 40z m240-42c3-43-5-83-24-120-19-37-48-64-86-86l-88 141c12 8 20 12 27 24 6 11 8 27 9 41z"/>
<glyph unicode="&#57379;" d="M88 178c-22 0-42-20-42-42 0-22 20-42 42-42 22 0 42 20 42 42 0 22-20 42-42 42z m0-58c-8 0-16 6-16 16 0 8 6 16 16 16 8 0 16-6 16-16-2-8-8-16-16-16z m53 59l0 138-87 0-38-74 0-109 19 0c0 29 24 53 53 53 29 0 53-24 53-53l224 0c3 18 13 34 27 44l-251 0z m288-1c-23 0-42-20-42-42 0-22 19-42 42-42 22 0 41 20 41 42 0 22-17 42-41 42z m0-58c-8 0-16 6-16 16 0 8 6 16 16 16 8 0 16-6 16-16 0-8-7-16-16-16z m-104 75c94 0 171 50 171 112 0 61-77 112-171 112-95 0-171-51-171-113 0-61 76-111 171-111z"/>
<glyph unicode="&#57380;" d="M104 352l21 22 35-35 86 87 21-23-107-107z m344-256c-11 11-26 19-42 26-16 6-32 12-46 19-8 3-16 9-19 19-2 5 0 8 3 11 18 13 29 31 37 51 1 5 3 10 8 12 1 0 5 3 6 4 8 12 10 23 5 36-2 3-3 6-6 8-5 1-5 4-5 9 0 11-2 23-2 34-3 22-14 37-35 46-5 2-10 3-14 5 1-8 3-18 3-27 0-64-43-117-103-135 7-17 18-32 32-43 5-3 7-8 4-13-2-3-4-6-5-8-7-4-13-9-21-12-22-10-46-16-67-31-8-5-19-11-24-19-5-6-3-14-13-21 0-6 0-14 0-21 10-1 5-3 5-6 1-11 9-21 21-24 6-2 12-3 19-3 53 0 104 0 157 0 30 0 60 0 91 1 13 0 22 10 24 23 1 9 1 19 1 29 0 11-4 20-14 30z m-261 403c-75 0-137-62-137-139 0-77 62-139 139-139 77 0 139 62 139 139-2 77-64 139-141 139z m0-261c-67 0-121 55-121 122 0 67 54 122 121 122 67 0 122-55 122-122 0-67-55-122-122-122z m-21-142c0 0-9-6-14-13-11-17-22-51 21-67 0 0 14 24 16 24 1 0 3 38 3 38z"/>
<glyph unicode="&#57381;" d="M317 101c5 29-2 53-31 65 4 2 5 4 7 4 6 3 13 6 21 9 4 2 6 7 6 11-5 2-10 4-14 5-5 2-10 7-13 10-2 1-2 3 0 5 5 6 5 14 3 20-3 12-5 21-3 32 3 13 9 23 22 28 2 0 3 1 3 3 2 5 7 6 10 6 19 5 40-5 50-24 8-14 8-29 3-45-2-4-3-9-2-14 2-2 2-5 3-6 4-5 4-7-1-10-7-5-13-8-19-10-2 0-5-1-7-3-1-1 2-8 5-9 8-5 16-8 24-13 6-3 13-7 18-10 12-6 16-17 16-30 0-3 0-8 0-11-2-12-10-18-21-18-27 0-53 0-80 0 1 5 0 5 0 5z m102 65c2 2 2 4 3 5 4 5 4 8-1 11-5 5-10 12-11 18 0 2-2 3-5 5-7 3-7 16-2 19 2 2 2 3 2 5 0 5 0 9 0 13 0 4 1 8 6 11 2 0 2 1 2 3 1 2 5 5 6 6 13 5 26 4 39-3 8-5 8-13 9-21 0-1 0-4 0-6 0-3 0-5 3-8 5-5 4-16-3-19-1 0-1-2-3-3-3-8-8-15-13-21-1-2-1-5-1-7 1-3 4-6 8-8 6-4 14-8 20-11 15-6 16-21 12-33-2-5-7-8-12-8-6 0-12 0-20 0-10 0-18 0-28 0-3 0-3 0-3 3 2 11 2 22-3 33 2 5-2 12-5 16z m-363 157l16 15 24-24 59 59 15-15-74-75z m238-177c-8 8-17 12-28 17-12 5-23 8-32 13-7 3-12 6-15 14-1 4 0 5 3 8 12 10 21 21 26 36 2 3 2 6 6 8 2 0 4 1 4 3 6 8 6 16 3 24 0 1-3 5-5 6-3 2-3 3-3 7 0 8 0 16-2 24-1 16-9 25-24 32-3 1-6 3-11 3 2-7 2-13 2-19 0-45-31-82-71-93 5-11 13-23 23-31 3-3 4-6 3-9-2-2-2-5-3-7-5-3-10-6-15-8-16-6-32-11-46-20-5-4-15-8-19-13-4-5-2-10-12-15 0-4 0-9 0-14 10-2 5-3 7-5 1-8 8-14 16-17 5-2 9-2 14-2 37 0 74 0 109 0 21 0 43 0 64 0 8 0 16 6 16 16 0 6 2 13 2 19-2 8-5 16-12 23z m-180 278c-53 0-96-43-96-96 0-53 43-96 96-96 52 0 96 43 96 96 0 53-44 96-96 96z m0-179c-47 0-85 38-85 85 0 46 38 84 85 84 46 0 84-38 84-84-1-48-38-85-84-85z m33-127c0 17-16 31-35 31-19 0-35-14-35-31 0-16 16-30 35-30 19 0 35 14 35 30z"/>
<glyph unicode="&#57382;" d="M366 413c-11 6-27 3-33-8-7-11-3-27 8-34 48-29 80-81 80-141 0-91-74-164-165-164-91 0-165 73-165 164 0 61 32 112 80 141 11 7 16 23 8 34-6 11-22 16-33 8-63-37-104-106-104-184 0-117 96-213 214-213 118 0 214 96 214 214 0 77-41 146-104 183z m-110-216c13 0 24 11 24 24l0 251c0 13-11 24-24 24-13 0-24-11-24-24l0-251c0-13 11-24 24-24z"/>
<glyph unicode="&#57383;" d="M358 230l-92 10c0 0-4 115-5 134-2 20-8 24-16 28-26 3-24-15-24-15l0-201c0 0-3 0-35 36-40 47-66 10-66 10 21-14 70-96 107-150 37-55 71-68 85-68 61 0 72 61 72 61 0 0 11 82 11 119 0 38-37 36-37 36z m-158 37l0 21c-37 14-62 50-62 90 0 52 43 96 96 96 52 0 96-44 96-96 0-37-21-71-53-87l0-22c45 19 75 61 75 110 0 64-53 117-117 117-64 0-117-53-117-117-1-53 34-97 82-112z"/>
<glyph unicode="&#57384;" d="M427 322c0 0 3 161-134 174 0 0-159-5-149-219 0 0-61 5-61-56 0-61 85-71 85-71 0 0 34-118 104-134 0 0 56-2 58 59 0 0-12 43-36 61 0 0 136 42 133 186z m-315-101c-3 40 37 32 37 32-2-16 11-72 11-72-34 3-45 0-48 40z m162-59c-15 25-15 60-15 60l16 0c13 0 58 24 63 108 4 81-44 76-44 76-59-3-59-102-59-102-14-125 51-194 51-194 26-38 12-59 12-59-24-21-58 27-58 27-67 74-66 205-66 205-16 178 125 184 125 184 0 0 104-3 103-152-4-115-128-153-128-153z"/>
<glyph unicode="&#57385;" d="M256 496c-128 0-232-104-232-232l0-248 77 0 0 45 65 0 0-45 58 0 0 45 64 0 0-45 59 0 0 45 66 0 0-45 75 0 0 248c0 128-104 232-232 232z m-62-192l-34 0 0-98-32 0 0 128 66 0z m190 0l-34 0 0-98-30 0 0 128 64 0z"/>
<glyph unicode="&#57386;" d="M474 395c-44 61-116 101-196 101-132 0-240-107-240-240 0-133 108-240 240-240 77 0 146 37 189 93l-192 155z m-226 24c0 15 13 27 27 27 15 0 27-12 27-27 0-14-12-27-27-27-16 0-27 13-27 27z"/>
<glyph unicode="&#57387;" d="M195 216l0-176c0-14 11-26 26-26l27 0c14 0 26 12 26 26l0 176z m250 166l0 88c0 15-11 26-26 26l-371 0c-14 0-26-11-26-26l0-88c0-14 12-25 26-25l373 0c13 1 24 13 24 25z m-394 93l368 0 0-25-368 0z m413-3l-16 0 0-26 16 0 0-123-246 0 0-67 32 0 0 42 240 0 0 174z m-291-248l123 0 0 24-123 0z"/>
<glyph unicode="&#57388;" d="M355 306l128 78c29 32 13 96 13 96 0 0-85 16-106-13l-86-121c0 0-24-53-78-10-39 54-63 22-63 22 0 0-29-36-30-36l181-178c0 0 32 30 32 30 33 31-5 52-5 52-42 41 14 80 14 80z m96 148c10 0 16-8 16-16 0-9-6-16-16-16-9 0-16 8-16 16 0 8 7 16 16 16z m-440-248l8-14 56 46-48-49 10-10 67 74-66-77 52 35-42-41 6-7 24 21-17-27 6-8 64 86-59-91 5-8 38 42-32-47 58 64-51-70 4-3 45 54-37-59 4-5 73 85-67-90 6-6 21 22-14-30 48 54-42-57 5-8 48 41-42-48 4-6 75 67c5 5 9 8 9 10l-9-10c-23-21-71-74-71-74l8-8 66 60-56-66 6-5 80 85-72-91 7-10 112 109-179 170z"/>
<glyph unicode="&#57389;" d="M488 262l-197 197c-11 11-27 11-38 0l-173-171c-11-11-11-27 0-38l197-197c11-11 27-11 38 0l173 171c11 11 11 27 0 38z m-83-11l-74-73c-11-12-27-12-38 0l-66 65c-11 11-11 27 0 39l74 73c11 11 27 11 38 0l66-65c9-12 9-28 0-39z m-343 47c0 0 82 73 74 73-149 26-117-145-117-145l-3-117c0 0 58-19 59-5-33 75-13 194-13 194z"/>
<glyph unicode="&#57390;" d="M234 230c-21-57-50-68-50-68 106-12 99 57 94 65-19 35-43 8-44 3z m59-6l40 27-35 37-26-35c21-7 21-29 21-29z m19 77l35-39c95 72 143 168 151 184-127-62-183-139-186-145z m-18-80l-6-5 0 6c-2 0-2 0-3 0 0-3 0-4 0-8 0-11-3-25-15-36 2-5 4-10 4-16 0-21-16-37-37-37-18 0-34 13-35 30-7 0-13 0-20 2l-1 8c0 0 1 0 3 1 3 2 6 5 11 10 10 10 21 26 32 54 2 2 3 5 5 8-19 20 0 52 0 50 29 48 43 77 43 101-3 70-93 64-93 64-142-13-171-152-166-203 29-308 318-165 328-112 6 32-5 70-50 83z m-201-47c-18 0-32 15-32 32 0 18 14 32 32 32 17 0 32-14 32-32 0-17-15-32-32-32z m6 111c-17 0-32 14-32 32 0 17 15 32 32 32 18 0 32-15 32-32 0-18-14-32-32-32z m74 67c-15 0-27 11-27 27 0 16 11 27 27 27 14 0 27-11 27-27 0-16-13-27-27-27z"/>
<glyph unicode="&#57391;" d="M366 219c-88 7-44 79-44 79 35 57 51 94 52 121-4 85-112 79-112 79-179-18-212-188-206-250 35-373 387-200 398-136 8 45-11 101-88 107z m-217-62c-21 0-39 17-39 38 0 21 18 39 39 39 21 0 38-18 38-39 0-21-17-38-38-38z m8 133c-21 0-39 17-39 38 0 22 18 40 39 40 21 0 38-18 38-38 0-23-16-40-38-40z m89 83c-17 0-32 14-32 32 0 17 15 32 32 32 18 0 32-15 32-32 0-18-14-32-32-32z m79-275c-24 0-45 19-45 44 0 24 19 45 45 45 24 0 45-19 45-45 0-25-21-44-45-44z"/>
<glyph unicode="&#57392;" d="M237 496l-45-46-118-119 0-315 366 0 0 480z m160-434l-282 0 0 240 165 0 0 148 118 0 0-388z"/>
<glyph unicode="&#57393;" d="M410 496l-308 0c-19 0-35-16-35-34l0-411c0-19 16-33 34-33l240 0 104 102 0 342c0 18-16 34-35 34z m9-374l-83-84c-14-14-11 12-11 12l0 68c0 16 16 16 16 16l72 0c25 2 6-12 6-12z"/>
<glyph unicode="&#57394;" d="M306 274l-48 100-50-96c-107 8-192 21-192 21l98-163 284 0c0 0 0 0 98 146-59-8-126-10-190-8z"/>
<glyph unicode="&#57395;" d="M259 118l162 164c5 4 5 12 0 17-5 5-13 5-18 0l-161-165-71-70c-32-32-64-32-97 0-29 30-28 61 4 93l303 302c22 23 54 8 65-3 8-8 13-18 13-29 0-11-5-24-13-32l-227-227c-24-24-33-13-41-6-7 6-18 17 1 38l143 142c0 0 8 8 8 8 6 7 6 13 1 18-5 5-13 5-17 0 0 0-151-150-151-150-30-31-16-60-1-74 27-27 57-11 75 6l225 228c15 14 21 32 21 49 0 18-8 35-21 47-20 20-65 36-99 3l-302-301c-40-40-43-88-5-128 45-42 91-42 133 0z"/>
<glyph unicode="&#57396;" d="M16 144l142-45 2 269-144 48z m104 48l18 0c4 0 8-3 8-8 0-5-4-8-8-8l-18 0c-5 0-8 3-8 8 0 5 3 8 8 8z m-40 45c3 3 8 3 11 0l18-18c3-3 3-8 0-11-3-3-8-3-11 0l-18 18c-3 3-3 9 0 11z m-48 49c3 4 8 4 11 0l18-17c3-3 3-8 0-11-3-4-8-4-11 0l-18 16c-3 3-3 9 0 12z m144-190l110 51 0 272-110-51z m66 139l17 18c3 3 8 3 11 0 4-3 0-11 0-11l-17-18c-3-3-8-3-11 0-4 3-4 8 0 11z m-48-48l17 18c3 3 8 3 11 0 4-3 0-11 0-11l-17-18c-3-3-8-3-11 0-4 3-4 8 0 11z m176 181l0-272 126 35 0 269z m44-126l-17-18c-3-3-8-3-11 0-4 3-4 8 0 11l17 18c3 3 8 3 11 0 4-3 0-11 0-11z m48 48l-17-18c-3-3-8-3-11 0-4 3-4 8 0 11l17 18c3 3 8 3 11 0 4-3 0-11 0-11z m-158-146l48-50 0 120c0-1-2-3-2-4-3-4-8-4-11 0l-17 17c-4 3-4 8 0 11 3 4 8 4 11 0l17-17c2-2 2-3 2-5l0 154-46 48z"/>
<glyph unicode="&#57397;" d="M496 453l-480-239 171-62 275 259-236-269-12-83 63 69 121-35z"/>
<glyph unicode="&#57398;" d="M272 130l0-15c5 0 11 0 14 2 4 1 4 9 2 11-5 3-10 2-16 2z m-40 153l8 0c-2 7-3 11-5 18 0-7-1-13-3-18z m-2-179l8 0c-1 6-3 11-4 18 0-7-2-13-4-18z m-19 192c2 3 2 10-1 13-4 3-8 1-15 1l0-17c8 0 13-2 16 3z m282-211c-15 24-202 349-215 369-11 18-35 18-46 0-16-27-203-352-213-368-11-20 3-40 23-40 16 0 404 0 425 0 24-1 35 21 26 39z m-306 233c7 0 13 0 18 0 11 0 17-8 16-19 0-5-3-9-7-11-4-3-11-3-19-3 0-8 0-18 0-26l-9 0 0 59z m0-230c2-2 5-3 8-2 3 2 3 4 3 8l10 0c0-6-3-12-8-14-5-3-13-3-18 0-8 6-9 21-9 34 0 6 1 12 3 17 2 5 6 8 13 10 5 0 9-2 11-5 3-3 5-8 5-13l-8 0c0 3-2 7-5 8-2 2-5 0-6 0-5-3-5-11-5-21 1-9 1-19 6-22z m21 77c-2 9-3 21-5 30-1-9-3-21-6-30l-8 0c-3 21-7 40-10 61l8 0c2-12 3-21 5-32 2 9 3 20 6 32l7 0c1-12 3-21 5-32 1 9 3 20 4 32l8 0c-3-21-6-40-9-61z m37-87c-2 5-3 12-5 16l-13 0c-1-4-3-11-5-16l-9 0c5 21 9 40 14 60l13 0c5-21 10-40 14-61l-9 0z m-7 87l0 59 8 0 0-61z m8 93c-1 4-3 11-4 16l-13 0c-2-5-3-12-5-16l-8 0c5 20 10 40 14 59l10 0c5-21 10-40 14-61z m39 20c0 2-2 2-2 4-3 1-5 4-8 6-1 2-3 2-5 3-3 3-6 7-4 13 0 5 1 8 4 10 2 1 5 4 10 4 5 0 10-1 11-4 3-4 5-7 5-12l-8 0c0 8-10 10-13 4 0-2-1-4 0-7 2-3 5-5 8-6 7-3 11-8 13-16 2-10-3-16-10-19-6-2-11-2-14 0-8 1-11 8-11 17l8 0c0-6 3-11 8-9 3 0 6 1 8 4 0 2 0 7 0 8z m-26-54l31 0 0-8-12 0c0-18 0-35 0-53l-8 0 0 53c-3 0-8 0-11 0z m39-146l-10 0c-3 10-5 20-8 29l-8 0c0-9 0-19 0-29l-8 0 0 61 18 0c11 0 17-6 17-17 0-7-3-12-8-13 0-11 3-21 7-31z m25 200c0 2-1 2-1 4-4 1-5 4-8 6-2 2-4 2-5 3-3 3-7 7-5 13 0 5 2 8 5 10 1 1 5 4 9 4 5 0 10-1 12-4 3-4 4-7 4-12l-8 0c0 8-9 10-12 4 0-2-2-4 0-7 1-3 4-5 8-6 6-3 11-8 12-16 2-10-3-16-9-19-5-2-10-2-15 0-8 1-11 8-11 17l8 0c0-6 3-9 8-9 3 0 7 1 8 4 2 2 2 7 0 8z m-22-54l8 0 0-24c5 0 11 0 16 0l0 24 8 0 0-61-8 0 0 29-16 0 0-27-8 0z m37-146l-31 0 0 61 29 0 0-8-19 0c0-5 0-9 0-14 3 0 8 0 13 0l0-8-13 0c0-7 0-13 0-19l22 0 0-12z"/>
<glyph unicode="&#57399;" d="M472 342c-13 0-24-11-24-24l0-88-384 0 0 152c0 13-11 24-24 24-13 0-24-9-24-24l0-278 48 0 0 66 384 0 0-66 48 0 0 214c0 13-11 24-24 24z m-37-38c0 42-35 38-35 38l-186 0 0-102 221 0c0 0 0 22 0 64z m-320-16c23 0 42 19 42 42 0 22-18 41-42 41-22 0-41-19-41-41 1-23 19-42 41-42z m-21-50l98 0c0 0 14-1 14 12l0 73c0 11-9 21-20 21-12 0-21-10-21-21l0-43-71 0c-11 0-20-10-20-21 0-11 9-21 20-21z"/>
<glyph unicode="&#57400;" d="M54 19l149 0 0 474-149 0z m256 474l0-475 149 0 0 475z"/>
<glyph unicode="&#57401;" d="M408 286c-5 4-13 4-22 4-5 0-10 0-15-2-5 0-9-2-11-2l-3-16 1 0c2 0 5 2 10 4 5 1 8 1 11 1 5 0 10 0 11-1 4-2 4-4 4-7 0 0 0-1 0-1 0 0 0-2 0-2-7 0-15-2-21-2-7-1-11-1-16-4-5-2-8-5-11-8-4-4-4-8-4-13 0-5 2-8 5-11 3-4 8-5 13-5 3 0 6 0 8 0 2 0 3 1 6 1 2 0 4 2 5 4 2 1 3 1 5 3l-2-7 21 0 10 45c0 2 0 2 0 3 0 2 0 2 0 4 1 4-2 9-5 12z m-21-46c-1-2-5-3-6-3-2-2-5-2-7-2-3 0-4 0-6 2-2 1-3 3-3 5 0 3 0 4 1 6 2 2 4 3 5 3 2 0 5 2 8 2 3 0 7 0 11 1z m-222 46c-5 2-11 4-23 4-4 0-9 0-14-2-5 0-10-2-11-2l-3-16 1 0c2 0 5 2 10 4 5 1 8 1 11 1 5 0 10 0 11-1 3-2 3-4 3-7 0 0 0-1 0-1 0 0 0-2 0-2-6 0-14-2-19-2-6-1-11-1-16-4-5-2-8-5-11-8-2-4-3-8-3-13 0-5 1-8 5-11 3-4 8-5 12-5 4 0 7 0 8 0 2 0 4 1 7 1 1 0 3 2 5 4 1 1 3 1 4 3l-1-7 21 0 9 45c0 2 0 2 0 3 0 2 0 2 0 4 2 4-1 9-6 12z m-21-46c-2-2-5-3-6-3-2-2-5-2-7-2-3 0-5 0-6 2-2 1-3 3-3 5 0 3 0 4 1 6 2 2 3 3 5 3 2 0 5 2 8 2 3 0 6 0 11 1z m-45 56c-1 3-3 5-6 8-3 2-7 3-11 3-5 0-10 2-15 2l-32 0-19-87 22 0 7 28 8 0c16 0 27 3 35 9 8 7 13 15 13 24 0 7 0 10-2 13z m-27-24c-3-3-10-5-16-5l-8 0 6 26 10 0c5 0 8 0 11-2 3-1 3-5 3-8 0-5-3-9-6-11z m166 16l-24-42-6 42-21 0 11-64-16-26 23 0 56 88z m184-66l21 0 21 90-21 0z m-81 74c-2 3-3 5-7 8-3 2-6 3-11 3-5 0-9 2-14 2l-31 0-19-87 23 0 6 28 8 0c14 0 27 3 35 9 8 7 13 15 13 24 0 7-2 10-3 13z m-27-24c-4-3-10-5-16-5l-8 0 6 26 10 0c4 0 8 0 11-2 3-1 3-5 3-8 0-5-2-9-6-11z m174 29c0 3-2 5-6 5l-7 0 0-16 5 0 0 6 3 0 3-6 4 0-5 8c1 0 3 0 3 3z m-6-2l-2 0 0 5 3 0c2 0 3 0 3-2 0-3-1-3-4-3z m9 8c-3 3-6 3-9 3-4 0-7-1-10-3-3-3-5-6-5-9 0-4 2-7 5-10 3-3 6-3 10-3 3 0 6 1 9 3 3 3 5 6 5 10 0 3-2 6-5 9z m-1-17c-2-2-5-4-8-4-4 0-7 2-8 4-2 1-4 4-4 8 0 3 2 6 4 8 1 1 4 3 8 3 3 0 6-2 8-3 1-2 3-5 3-8 0-4 0-7-3-8z"/>
<glyph unicode="&#57402;" d="M98 165c-2 3-4 5-7 8-3 1-6 3-11 3-5 0-10 2-14 2l-31 0-19-85 22 0 7 27 8 0c14 0 27 3 35 10 8 6 13 14 13 24 0 4-2 8-3 11z m-26-24c-3-3-10-5-16-5l-8 0 6 26 10 0c5 0 8 0 11-2 3-2 3-5 3-8-1-5-3-10-6-11z m266 24c-2 3-4 5-7 8-3 1-6 3-11 3-5 0-10 2-14 2l-31 0-19-85 22 0 7 27 8 0c14 0 27 3 35 10 8 6 13 14 13 24 0 4-2 8-3 11z m-28-24c-3-3-9-5-16-5l-6 0 6 26 10 0c5 0 8 0 11-2 3-2 3-5 3-8-1-5-3-10-8-11z m93 14c-5 3-13 3-22 3-5 0-10 0-15-1-4-2-8-2-11-2l-3-16 2 0c1 0 4 2 9 3 5 2 8 2 11 2 5 0 8 0 12-2 3-1 3-3 3-6 0 0 0-2 0-2 0 0 0-1 0-1-7 0-15-2-19-2-5 0-12-1-16-5-5-1-8-4-12-8-1-3-3-8-3-12 0-5 2-8 5-12 3-3 8-4 13-4 3 0 6 0 8 0 1 0 3 1 6 1 2 0 3 2 5 3 2 2 3 2 5 4l-2-7 21 0 10 43c0 2 0 2 0 4 0 1 0 1 0 3 0 6-2 11-7 14z m-21-46c-1-2-4-3-6-3-2-2-5-2-6-2-4 0-5 0-7 2-1 1-3 3-3 4 0 4 0 5 2 7 1 1 3 3 4 3 2 0 5 2 8 2 4 0 7 0 10 1z m36-16l20 0 21 88-21 0z m-181 64l-24-42-5 42-21 0 11-63-16-24 23 0 56 88-24 0z m-74-2c-5 3-13 3-22 3-5 0-10 0-15-1-4-2-8-2-11-2l-3-16 2 0c1 0 4 2 9 3 5 2 8 2 11 2 5 0 8 0 12-2 3-1 3-3 3-6 0 0 0-2 0-2 0 0 0-1 0-1-7 0-15-2-19-2-5 0-12-1-16-5-5-1-8-4-12-8-1-3-3-8-3-12 0-5 2-8 5-12 3-3 8-4 13-4 3 0 6 0 8 0 1 0 3 1 6 1 2 0 3 2 5 3 2 2 3 2 5 4l-2-7 21 0 10 43c0 2 0 2 0 4 0 1 0 1 0 3 1 6-2 11-7 14z m-19-46c-2-2-5-3-6-3-2-2-5-2-7-2-3 0-5 0-6 2-2 1-3 3-3 4 0 4 0 5 1 7 2 1 3 3 5 3 2 0 5 2 8 2 3 0 6 0 10 1z m-26 174l24 0c42 0 76 8 100 26 24 17 35 40 35 69 0 12-2 22-7 32-4 9-11 14-19 20-8 5-17 10-30 12-11 1-26 3-40 3l-87 0-56-240 63 0z m28 115l25 0c13 0 24-1 31-6 6-5 9-11 9-21 0-14-5-25-16-32-9-8-25-11-43-11l-24 0z m344 10c-5 8-12 14-20 21-8 5-19 9-30 11-11 2-24 3-40 3l-85 0-54-238 62 0 18 77 24 0c41 0 75 8 99 25 24 18 35 40 35 69-3 14-5 24-9 32z m-76-69c-11-8-25-11-43-11l-22 0 16 72 25 0c13 0 24-2 31-6 6-5 9-12 9-21 0-16-4-27-16-34z"/>
<glyph unicode="&#57403;" d="M346 445l-229 0c-31 0-56-26-56-56l0-319c0-30 25-56 56-56l229 0c30 0 56 26 56 56l0 320c0 31-26 55-56 55z m33-373c0-18-14-34-33-34l-229 0c-18 0-34 15-34 34l0 318c0 18 15 34 34 34l229 0c17 0 33-14 33-34z m37 413c-18 11-37 11-42 11-1 0-1 0-1 0l-239 0 0-22 239 0c0 0 0 0 1 0 4 0 20 0 31-8 13-8 24-20 24-50 0-328 0-328 0-328l22 0c0 0 0 0 0 328 0 35-17 58-35 69z m-242-232c-3 1-9 1-16 1l-36 0-20-91 20 0 6 35 13 0c8 0 14 0 16 0 5 0 9 2 13 4 3 1 6 3 8 6 3 3 4 6 6 11 2 5 3 10 3 13 0 5-1 10-3 13-3 3-6 6-10 8z m-9-32c-2-3-5-5-8-7-3-1-10-1-19-1l-7 0 5 27 13 0c6 0 9 0 11-2 2 0 3-1 5-3 1-1 1-3 1-5 2-3 0-6-1-9z m104 19c-2 3-3 5-7 8-3 2-4 3-8 5-3 1-6 1-9 1-2 0-7 0-13 0l-24 0-19-91 32 0c8 0 14 0 17 2 7 1 13 5 18 8 6 5 11 11 14 17 4 8 7 16 7 26 0 5 0 10-2 13-3 5-5 8-6 11z m-18-42c-3-6-6-9-9-12-4-2-5-4-8-5-4-2-8-2-15-2l-9 0 12 63 12 0c4 0 9 0 11-2 3-2 6-3 8-6 1-4 3-8 3-15 0-9-2-16-5-21z m29-35l19 0 8 39 45 0 3 16-45 0 5 22 45 0 3 16-64 0z"/>
<glyph unicode="&#57404;" d="M486 90c-12 22-196 339-208 360-9 17-35 17-44 0-16-28-199-344-208-359-12-19 3-40 22-40 14 0 394 0 416 0 21-1 32 21 22 39z m-244 248c9 0 17-8 17-18 0-10-8-18-17-18-10 0-18 8-18 18-2 10 8 18 18 18z m59-245l-32 83-16-16-21-66-21 7 19 70 23 39-10 30-8-10-43-17-6 9 38 26c2 8 8 43 24 48 10 3 24-3 37-11 16-10 32-19 32-19l0-56-11 0-5 46c-5 2-10 3-15 5 10-26 15-51 8-67l24-96z"/>
<glyph unicode="&#57405;" d="M256 496c-30 0-56-26-56-56l0-13 112 0 0 13c0 30-26 56-56 56z m-56-318l112 0 0 222-112 0z m58-162l54 141-112 0z"/>
<glyph unicode="&#57406;" d="M118 448l-28 29-7-7c-16 16-25 26-25 26 0 0-15 2-29-13-15-14-13-29-13-29 0 0 370-372 416-403 26-16 61-33 64-35-2 3-19 37-35 64-16 26-139 152-245 259 6-5 14-8 18-5 4 5-4 16-20 34-14 16-96 80-96 80z m92-86c0 0-5-8-2-15 0 0 0 0 0-1-35 35-69 68-96 96l2 1c0-1 81-65 96-81z"/>
<glyph unicode="&#57407;" d="M365 494c9 0 24-3 30-8-91-91-184-184-277-276 0 0 0 0-1 0-13 0-26-2-40-4 97 96 192 192 288 288z m59-20c18-16 34-31 51-47-33-33-65-65-99-99-62-62-125-125-187-189-10 2-35 5-42 11-3 15-5 26-8 39 95 94 191 190 285 285z m66-74c4-5 9-22 6-32-96-94-190-189-285-283 0 0 0 0-1 0 0 11-2 24-2 35 94 93 187 187 282 280z m-394-221c6 0 11 0 18 0 3-17 6-35 11-53 19-4 38-8 57-12 2-18 2-36 4-53-29-10-58-18-85-27-13 25-37 54-64 64 9 25 17 52 27 78 8 2 19 2 32 3z m-74-109c20-8 37-25 47-44-8-4-18-5-26-8-37-7-27 35-21 52z"/>
<glyph unicode="&#57408;" d="M13 16l113 35-72 72z m413 341c3-3 9-3 12 0 4 3 4 9 0 13l-65 65c-3 3-10 3-13 0-3-3-3-9 0-13z m60 112l-12 13c-18 17-47 17-66 0l-35-36c0 0 0 0-2-1l77-77c0 0 2 0 2 2l35 35c19 17 19 46 1 64z m-425-335l78-78 290 290-79 78z m273 250c4 3 10 3 15 0 5-3 3-10 0-14l-189-188c-3-3-10-3-14 0-4 4-4 10 0 15z"/>
<glyph unicode="&#57409;" d="M254 496l-80-88 0-320c0-40 32-72 72-72l18 0c40 0 72 32 72 72l0 320z m-6-21l13 0 54-54c0 0-1 0-1 0-12 0-23-8-26-18-5 13-16 21-30 21-15 0-28-10-31-24-3 11-14 21-27 21-2 0-2 0-3 0z m34-81l0-292-48 0 0 292c0 12 11 24 24 24 12 0 24-12 24-24z m48-314l-148 0 0 13 148 0z"/>
<glyph unicode="&#57410;" d="M29 490l-7-7c-8-8-8-21 0-29l386-385 88-53-54 90-384 384c-8 8-21 8-29 0z"/>
<glyph unicode="&#57411;" d="M416 96l0-24c-66 13-99 50-120 90-10 19-14 38-19 57l19 0 0 79-24 0 0 120c14 6 24 20 24 36 0 23-18 40-40 40-22 0-40-17-40-40 0-17 11-33 29-38l0-48c-21 37-53 62-83 77-24 13-47 19-66 24l0 25-80 0 0-78 80 0 0 26c48-12 130-45 146-144l-28 0 0-79 31 0 0-123c-16-5-29-19-29-38 0-23 18-40 40-40 22 0 40 17 40 40 0 16-10 30-24 36l0 56c22-46 67-91 144-104l0-28 80 0 0 78z"/>
<glyph unicode="&#57412;" d="M38 230l66 0c14 0 24 10 24 23 0 13-10 22-22 22l-68 0c-12 0-22-9-22-22 0-13 10-23 22-23z m0 136l66 0c14 0 24 10 24 23 0 13-10 24-22 24l-68 0c-12 0-22-11-22-24 0-13 10-23 22-23z m90-244c0 12-10 22-22 22l-68 0c-12 0-22-10-22-22 0-13 10-23 22-23l66 0c14-1 24 10 24 23z m344 304l-37 0 0-93 37 0c13 0 24 11 24 24l0 45c0 12-11 24-24 24z m0-261l-37 0 0-93 37 0c13 0 24 11 24 24l0 45c0 13-11 24-24 24z m-83 320l-304 0c-13 0-24-11-24-24l0-40 45 0c17 0 32-15 32-32 0-18-15-32-32-32l-47 0 0-72 45 0c18 0 32-15 32-32 0-18-14-32-32-32l-45 0 0-67 45 0c18 0 32-15 32-32 0-18-14-32-32-32l-45 0 0-37c0-13 11-24 24-24l304 0c13 0 24 11 24 24l0 408c2 13-9 24-22 24z m-138-111c0-11 2-51 2-51 0 0-10-14-21-9l-2 72c2 1 21 0 21-12z m48-249c-8-2-56 8-107 94-8 15-34 83-19 138 1 5 9 22 51 30 2-41 3-75 3-75 0 0-21-11-11-32 13-29 26-51 26-51l17-32c0 0 8-16 32-7 58-46 58-46 58-46 0 0-26-19-50-19z m56 24l-59 46c16 15 24 8 24 8 0 0 18-14 38-30 7-8-3-24-3-24z m117 147l-37 0 0-93 37 0c13 0 24 11 24 24l0 45c0 13-11 24-24 24z"/>
<glyph unicode="&#57413;" d="M128 122c0 12-10 22-22 22l-68 0c-12 0-22-10-22-22 0-13 10-23 22-23l66 0c14-1 24 10 24 23z m-90 244l66 0c14 0 24 10 24 23 0 13-10 22-22 22l-68 0c-12 2-22-9-22-22 0-13 10-23 22-23z m0-136l66 0c14 0 24 10 24 23 0 13-10 22-22 22l-68 0c-12 0-22-9-22-22 0-13 10-23 22-23z m226 69c-10 0-16-6-21-19-5-13-8-26-8-40 0-6 2-13 5-18 3-4 6-6 11-6 5 0 10 2 13 6 3 4 6 12 10 23 3 11 4 22 4 33 0 7-1 12-4 16 0 4-5 5-10 5z m208 127l-37 0 0-93 37 0c13 0 24 11 24 24l0 45c0 12-11 24-24 24z m0-261l-37 0 0-93 37 0c13 0 24 11 24 24l0 45c0 13-11 24-24 24z m0 131l-37 0 0-93 37 0c13 0 24 11 24 24l0 45c0 13-11 24-24 24z m-83 189l-304 0c-13 0-24-11-24-24l0-40 45 0c17 0 32-15 32-32 0-18-15-32-32-32l-47 0 0-72 45 0c18 0 32-15 32-32 0-18-14-32-32-32l-45 0 0-67 45 0c18 0 32-15 32-32 0-18-14-32-32-32l-45 0 0-37c0-13 11-24 24-24l304 0c13 0 24 11 24 24l0 408c2 13-9 24-22 24z m-90-267c5 0 10 1 15 6 4 5 9 11 12 19 4 8 7 18 7 29 0 19-7 34-18 45-11 11-25 17-45 17-20 0-38-8-52-22-15-14-21-34-21-59 0-24 6-42 21-56 12-15 30-21 51-21 9 0 21 2 29 5 9 3 17 8 25 16l23 0c-10-13-21-21-36-27-14-7-28-10-43-10-25 0-46 8-62 26-18 17-26 38-26 67 0 27 8 51 24 69 16 19 37 28 66 28 16 0 30-3 41-9 12-7 20-16 28-27 6-12 11-26 11-44 0-22-7-40-19-52-13-13-26-20-39-20-9 0-16 5-17 13-5-5-10-8-13-9-3-2-8-4-13-4-11 0-19 5-26 13-6 8-9 19-9 34 0 17 5 35 14 49 10 15 21 21 34 21 5 0 9-1 14-3 5-3 8-6 11-11l2 13 22 0-14-87c0-1 0-3 0-3 0-5 2-6 3-6z"/>
<glyph unicode="&#57414;" d="M408 338l-118 110c1 3 1 6 1 10 0 19-16 35-35 35-19 0-35-16-35-35 0-4 0-7 1-10l-118-110-88 0 0-320 480 0 0 320z m-178 97c7-6 16-11 26-11 10 0 19 5 26 11l102-96-256 0z m215-368l-378 0 0 223 378 0z"/>
<glyph unicode="&#57415;" d="M78 464l-62 0 0-437 104 0 0 207-42 0z m356 0l0-230-42 0 0-207 104 0 0 437z m-104 0l-21 0 0-230-42 0 0-207 104 0 0 207-41 0z m-127 0l-21 0 0-230-41 0 0-207 104 0 0 207-42 0z m-41 21l-63 0 0-231 63 0z m124 0l-62 0 0-231 62 0z m125 0l-62 0 0-231 62 0z"/>
<glyph unicode="&#57416;" d="M355 475c-30 13-64 21-99 21-30 0-59-5-85-16l184-160z m27-14l0-280 103 0c8 24 13 49 13 75-2 86-48 162-116 205z m-238 8c-77-42-128-122-128-213 0-19 3-40 6-58l212 192z m13-432c30-15 64-21 99-21 96 0 178 56 218 138l-317 0z m-27 14l0 208-98-89c19-50 54-92 98-119z"/>
<glyph unicode="&#57417;" d="M16 435l0-357 480 0 0 357z m440-320l-402 0 0 280 402 0z m-21 39c-6 91-62 99-81 99-26 3-58-16-72-43-31-52-52-36-58-36-38 20-48 21-74 21-49 0-68-46-73-56l358 0c0 3 0 10 0 15z m-261 84c34 0 61 28 61 61 0 34-27 61-61 61-33 0-60-27-60-61 0-33 27-61 60-61z"/>
<glyph unicode="&#57418;" d="M256 496c-133 0-240-107-240-240 0-133 107-240 240-240 133 0 240 107 240 240 0 133-107 240-240 240z m0-434c-107 0-194 87-194 194 0 106 85 190 191 194l0-189 137 133c36-36 58-84 58-138 2-107-85-194-192-194z"/>
<glyph unicode="&#57419;" d="M256 496c-133 0-240-107-240-240 0-133 107-240 240-240 133 0 240 107 240 240 0 133-107 240-240 240z m0-434c-107 0-194 87-194 194 0 106 85 190 191 194l0-189 197 0c0-2 0-3 0-3 0-109-87-196-194-196z"/>
<glyph unicode="&#57420;" d="M256 496c-133 0-240-107-240-240 0-133 107-240 240-240 133 0 240 107 240 240 0 133-107 240-240 240z m-194-240c0 106 85 192 191 194l0-386c-104 0-191 86-191 192z"/>
<glyph unicode="&#57421;" d="M430 70l-176 426-172-426 145 0 0-54 58 0 0 54z"/>
<glyph unicode="&#57422;" d="M261 406c-69 0-133-27-179-72-4-3-4-6-2-11l178-304c1-3 4-5 8-5 3 0 6 2 8 5l163 311c1 3 1 8-2 11-48 40-107 65-174 65z m-91-84c0 19 14 33 33 33 19 0 34-14 34-33 0-20-15-34-32-34-19 0-35 16-35 34z m56-100c-8 0-15 7-15 15 0 8 7 14 15 14 8 0 14-6 14-14 0-10-6-15-14-15z m41-92c-16 0-27 12-27 27 0 14 13 27 27 27 15 0 27-13 27-27 0-15-12-27-27-27z m55 129c-13 0-24 11-24 24 0 13 11 24 24 24 12 0 24-11 24-24 0-14-10-24-24-24z m155 163c-59 47-135 74-216 74-85 0-165-30-226-82-3-3-3-8-1-11l33-56c2-1 3-3 7-5 0 0 1 0 1 0 2 0 5 0 7 2 48 43 112 70 182 70 66 0 126-24 174-62 2-2 5-2 8-2 4 0 5 2 7 5l30 58c-3 3-3 6-6 9z"/>
<glyph unicode="&#57423;" d="M491 138l0 54-209 131 0 147c0 15-12 26-26 26-14 0-26-11-26-26l0-148-209-130 0-54 209 67 0-109-46-38 0-42 66 22 12 0 66-22 0 40-46 40 0 109z"/>
<glyph unicode="&#57424;" d="M474 443c0 0 11 23-10 43-24 18-45 4-45 4l-99-116-251 23-31-37 191-91-75-87-108 5-12-17 112-52 65-102 16 14-19 106 75 86 117-174 32 34-58 246z"/>
<glyph unicode="&#57425;" d="M496 309c-19 24-50 11-50 11l-139-50-160 68-17-18 68-83-140-51 107-12c0 0 219 72 293 95 33 14 40 37 38 40z m-464-61c-2 2-16-13-16-13l35-38 50 17c0-1-67 32-69 34z"/>
<glyph unicode="&#57426;" d="M496 106c0 36-16 80-45 124 0 5 0 10 0 15 0 118-96 213-213 213-11 0-22-2-33-4-40 20-77 31-109 31-24 0-46-7-62-24-12-15-18-34-18-55 0-25 8-56 24-88-10-24-14-48-14-75 0-118 96-213 212-213 31 0 60 7 87 18 32-14 62-21 89-22 24 0 47 6 63 24l-11 11 11-11c13 16 19 35 19 56z m-43-34c-8-8-21-13-39-13-33 0-81 18-132 50 0 0-2 0-2 1-2 2-5 4-6 5-29 19-58 42-85 67-39 36-71 72-95 109-30 45-46 87-46 115 0 16 3 26 11 34 7 8 19 13 39 13 0 0 0 0 1 0 16 0 37-5 59-13-30-13-57-32-78-56 18-51 64-120 130-181 60-57 126-96 179-113 25 24 43 54 54 89 15-29 23-54 21-75 0-14-3-24-11-32z"/>
<glyph unicode="&#57427;" d="M141 496l0-480 229 251z"/>
<glyph unicode="&#57428;" d="M290 370l-5 44 0 82-56 0 0-82-5-44c-37-15-64-50-64-92l0-148c0-10 8-18 18-18l4 0 0-77c0-11 10-21 21-21 11 0 21 10 21 21l0 77 64 0 0-77c0-11 10-21 21-21 11 0 21 10 21 21l0 77 6 0c10 0 18 8 18 18l0 148c0 42-28 79-64 92z"/>
<glyph unicode="&#57429;" d="M216 371c-6 2-14 2-21 2l-9 0c-56 0-103-39-114-90l-56 0 0-53 54 0c13-51 60-89 114-89l10 0c8 0 14 0 20 1l0 56 44 0 0 34-44 0 0 50 44 0 0 33-44 0 0 56z m226-88c-13 51-60 90-114 90l-10 0c-6 0-12 0-19-2l0-57 31 0 0-34-31 0 0-50 31 0 0-33-31 0 0-58c7-1 13-1 19-1l10 0c56 0 102 38 114 89l54 0 0 53z"/>
<glyph unicode="&#57430;" d="M346 445l-229 0c-31 0-56-26-56-56l0-319c0-30 25-56 56-56l229 0c30 0 56 26 56 56l0 320c0 31-26 55-56 55z m33-373c0-18-14-34-33-34l-229 0c-18 0-34 15-34 34l0 318c0 18 15 34 34 34l229 0c17 0 33-14 33-34z m37 413c-18 11-37 11-42 11-1 0-1 0-1 0l-239 0 0-22 239 0c0 0 0 0 1 0 4 0 20 0 31-8 13-8 24-20 24-50 0-330 0-330 0-330l22 0c0 0 0 0 0 330 0 35-17 58-35 69z m-248-232c-3 1-10 1-16 1l-37 0-19-91 19 0 8 35 13 0c8 0 14 0 16 0 5 0 10 2 13 4 3 1 6 3 8 6 3 3 5 6 6 11 2 5 3 10 3 13 0 5-1 10-3 13-3 3-6 6-11 8z m-8-32c-2-3-5-5-8-7-3-1-10-1-19-1l-7 0 5 27 13 0c6 0 10 0 11-2 2 0 3-1 5-3 2-1 2-3 2-5 0-3 0-6-2-9z m171 35c-11 0-19-3-27-8-8-5-14-13-18-22-3-8-4-16-4-26 0-13 4-24 12-30 7-5 15-8 26-8 8 0 14 1 21 3 6 1 13 5 17 8l8 40-41 0-3-16 24 0-4-15c-3-1-6-3-11-4-5-2-8-2-13-2-6 0-11 2-16 5-3 3-4 9-4 17 0 8 1 15 4 23 4 6 7 11 12 14 4 3 11 5 16 5 4 0 9-2 12-3 4-2 7-7 8-11l18 1c-2 10-6 16-13 21-5 6-13 8-24 8z m-88-62l-25 60-18 0-19-91 17 0 13 61 24-61 18 0 19 91-16 0z"/>
<glyph unicode="&#57431;" d="M16 496l0-390 248-90 232 85 0 395z m139-110l-125 0 0 28 125 0z m163 0l-124 0 0 28 124 0z m164 0l-125 0 0 28 125 0z"/>
<glyph unicode="&#57432;" d="M117 414l0-398 358 0 0 398z m320-302l-280 0 0 262 281 0 0-262z m-362 344l282 0 0-21 38 0 0 61-358 0 0-398 56 0 0 96-18 0z"/>
<glyph unicode="&#57433;" d="M440 166c5 4 10 5 16 5 11 0 24-13 24-27 0-16-10-29-26-29-17 0-32 15-32 29l-104 0-51-77c8-3 16-11 16-25 0-13-13-24-27-24-14 0-27 11-27 24 0 14 8 22 16 25l-51 77-104 0c0-14-15-29-32-29-16 0-26 13-26 29 0 16 13 27 24 27 8 0 13-1 16-5l53 90-55 90c-4-4-9-5-16-5-11 1-22 13-22 29 0 16 10 27 26 27 17 0 32-15 32-27l104 0 51 76c-8 4-16 12-16 26 0 11 11 24 27 24 16 0 27-13 27-26 0-14-8-22-16-25l51-77 104 0c0 14 15 27 32 27 16 0 26-13 26-27 0-16-13-27-24-27-8 0-13 1-16 5l-53-90z"/>
<glyph unicode="&#57434;" d="M256 496c-133 0-240-107-240-240 0-133 107-240 240-240 133 0 240 107 240 240 0 133-107 240-240 240z m101-366c-13-7-26-8-39-8-8 0-32 4-72 14-1 0-3 0-4 2-4 1-5 1-10 1-3 0-8 0-13 0-5 0-9 0-14-1-5-2-11-5-21-8-10-5-18-7-21-7-5 0-9 2-14 7-5 4-7 9-7 17 0 3 2 5 4 8-2 2 1 5 4 10 4 3 10 9 16 14 7 5 13 13 16 24 5 10 7 19 7 31 0 3 0 9-2 17l-16 0c-9 0-17 2-22 3-3 2-5 5-5 13 0 13 8 19 24 19l11 0c-6 21-9 37-9 48 0 16 3 31 11 44 8 12 17 22 32 28 14 7 30 12 48 12 16 0 30-2 41-7 12-3 21-11 31-19 14-16 22-32 22-50 0-6-3-12-8-17-5-5-11-8-17-8-13 0-21 6-26 21-3 12-10 24-16 30-6 6-16 10-26 10-11 0-20-4-28-12-7-9-10-19-10-30 0-8 0-14 2-21 1-6 4-16 8-29l28 0c12 0 20-1 24-3 7-1 8-6 8-14 0-5-1-10-6-13-3-3-10-5-14-5l-34 0 0-3c0-13-3-26-10-37-6-11-16-24-30-41 5 1 8 1 13 3 5 1 9 1 14 3 5 0 11 2 18 2 8 0 21-2 37-4 16-1 25-3 30-3 8 0 16 2 24 3 8 4 14 4 16 4 6 0 11-2 16-7 5-5 6-9 6-16 0-13-6-21-17-25z"/>
<glyph unicode="&#57435;" d="M419 101c19 13 64 168-123 272l-80 0c-187-104-142-258-123-272 40-34-11-67-11-67l-2-15c0 0 0 0 24 0 61 11 98-3 98-3l105 0c0 0 37 14 98 3 24 0 24 0 24 0l-2 15c3 0-48 33-8 67z m-104 19c-8-3-14-5-22-5-5 0-19 3-43 8 0 0-2 0-4 2-1 0-3 1-4 1-2 0-5 0-8 0-4 0-7 0-8-1-4-2-7-3-13-5-7-3-10-3-13-3-3 0-6 1-8 3-3 3-5 6-5 11 0 2 0 3 2 5 1 2 3 3 5 6 1 2 4 5 9 10 3 3 8 8 10 14 3 7 3 12 3 18 0 2 0 5-2 10l-9 0c-7 0-10 0-13 1-3 2-5 5-5 8 0 8 5 11 15 11l6 0c-3 13-6 21-6 29 0 10 1 18 6 26 5 8 11 13 19 17 8 5 18 7 29 7 10 0 18-2 24-3 6-2 13-7 18-12 9-9 12-19 12-30 0-3-1-6-4-10-4-3-7-4-12-4-8 0-12 4-14 12-2 8-5 15-10 18-3 3-9 6-16 6-6 0-12-1-17-6-5-5-7-11-7-18 0-4 0-8 2-12 2-4 3-10 5-18l17 0c7 0 12 0 15-2 3-1 5-4 5-9 0-3-2-7-4-8-1-2-4-3-9-3l-21 0 0-2c0-8-2-14-5-21-3-6-9-14-17-24 3 0 4 2 8 2 3 0 4 1 8 1 3 0 6 0 9 0 5 0 13 0 23-1 9-2 16-2 17-2 5 0 10 0 15 2 4 1 8 1 9 1 3 0 7-1 10-4 3-4 5-7 5-10 4-6 1-11-7-16z m-62 269l27 0 53 67 0 26-37 0 0 14-82 0 0-14-36 0 0-26 52-67z"/>
<glyph unicode="&#57436;" d="M339 125l-174 0c-8 0-15-7-15-15 0-8 7-14 15-14l174 0c8 0 15 6 15 14 0 8-7 15-15 15z m31 264l-20 0c-4 13-16 21-30 21l-14 0 0 8c0 9-8 16-18 16l-24 0 0 14c10 3 16 13 16 22 0 15-11 26-24 26-13 0-24-11-24-24 0-10 6-19 16-22l0-15-24 0c-10 0-16-8-16-16l0-8-16 0c-14 0-26-9-30-21l-20 0c-24 0-44-20-44-44l0-284c0-24 20-44 44-44l229 0c24 0 45 20 45 44l0 282c-2 24-21 45-46 45z m-132 83c0 10 8 18 18 18 10 0 18-8 18-18 0-10-8-18-18-18-10 0-18 8-18 18z m152-411c0-11-9-21-20-21l-228 0c-11 0-20 10-20 21l0 283c0 11 9 21 20 21l18 0 0-32 194 0 0 32 17 0c11 0 21-10 21-21l0-283z m-51 224l-174 0c-8 0-15-7-15-15 0-8 7-14 15-14l174 0c8 0 15 6 15 14 0 8-7 15-15 15z m0-80l-174 0c-8 0-15-7-15-15 0-8 7-14 15-14l174 0c8 0 15 6 15 14 0 8-7 15-15 15z"/>
<glyph unicode="&#57437;" d="M162 362l89 0c3 0 7 3 7 6 0 3-4 6-7 6l-89 0c-4 0-7-3-7-6 0-3 3-6 7-6z m-117-309l422 0c16 0 29 13 29 29l-480 0c0-16 13-29 29-29z m117 273l89 0c3 0 7 4 7 7 0 3-4 6-7 6l-89 0c-4 0-7-3-7-6 0-3 3-7 7-7z m305-60l-54 0 0 70-125 123-5 0c0 0 0 0-133 0-20 0-33-6-41-16-7-8-8-17-8-22 0-2 0-2 0-2l0-49c0-7 5-10 9-10 7 0 10 5 10 10l0 49c0 2 0 7 3 10 5 5 11 9 29 9 82 0 114 0 125 0l0-76c0-2 1-12 8-21 8-11 22-21 45-21 30 0 51 0 60 0l0-54-172 0 0 16c0 16-13 28-29 28l-144 0c-16 0-29-12-29-28l0-15 34 0c4 0 8-3 8-8 0-5-4-8-8-8l-34 0 0-14 34 0c4 0 8-3 8-8 0-5-4-8-8-8l-34 0 0-15 34 0c4 0 8-3 8-8 0-4-4-8-8-8l-34 0 0-89 480 0 0 139c0 13-13 26-29 26z m-137 75c-16 0-23 5-28 11-3 5-4 10-4 11l0 58 81-82c-11 2-27 2-49 2z"/>
<glyph unicode="&#57438;" d="M496 270c0 31-24 55-54 55l-58 0 0 163-256 0 0-163-58 0c-30 0-54-24-54-55l0-182 112 0 0-64 258 0 0 64 110 0z m-138 191l0-183-203 0 0 183z m-203-410l0 103 203 0 0-103z"/>
<glyph unicode="&#57439;" d="M467 414l-422 0c-16 0-29-12-29-30l0-120c0-16 13-29 29-29l48 0 0 37c0 16 13 29 30 29l237 0c16 0 29-13 29-29l0-75c-11 0-31 0-63 0-24 0-38-10-46-21-8-11-8-21-8-21l0-78c-13 0-45 0-128 0-18 0-24 5-27 8-3 3-3 8-3 9l0 98c0 6-5 11-12 11-6 0-11-5-11-11l0-96c0 0 0-2 0-2 0-4 2-14 8-24 8-9 21-16 42-16 136 0 136 0 136 0l5 0 124 125 0 55 56 0c16 0 31 12 31 28l0 122c3 18-10 30-26 30z m-406-56c-8 0-16 7-16 16 0 8 6 16 16 16 8 0 16-6 16-16 0-9-7-16-16-16z m46 0c-8 0-16 7-16 16 0 8 7 16 16 16 10 0 16-6 16-16 0-9-6-16-16-16z m187-264l0 61c0 2 2 7 5 11 5 5 11 12 27 12 23 0 39 0 50 0z m72 364c-70 0-97 0-107 0 0 0 0 0-6 0-10 0-37 0-107 0-26-4-42-28-42-28l306 0c-2 0-18 24-44 28z m-211-221l91 0c4 0 7 3 7 6 0 3-3 7-7 7l-91 0c-3 0-6-4-6-7 0-3 3-6 6-6z m0-37l91 0c4 0 7 3 7 6 0 4-3 7-7 7l-91 0c-3 0-6-3-6-7 1-3 3-6 6-6z m0-37l91 0c4 0 7 3 7 7 0 3-3 6-7 6l-91 0c-3 0-6-3-6-6 1-4 3-7 6-7z"/>
<glyph unicode="&#57440;" d="M378 291l1 64 0 122-246 0 0-127-2 0 2-57z m-248-179l0-77 252 0 0 77z m310 238l-35 0-3-83-293 0 0 83-37 0c-30 0-56-25-56-56l0-148c0-31 26-56 56-56l38 0 0 43 295 0 0-43 35 0c30 0 56 25 56 56l0 148c0 32-26 56-56 56z"/>
<glyph unicode="&#57441;" d="M339 403l-166 0c-37 0-66-29-66-65l0-165c0-37 29-66 66-66l166 0c37 0 66 29 66 66l0 165c0 36-29 65-66 65z m-307-99c-10 0-16-6-16-16 0-10 6-16 16-16l53 0 0 32z m448 30c10 0 16 7 16 16 0 10-6 16-16 16l-53 0 0-32z m-448-92c-10 0-16-7-16-16 0-10 6-16 16-16l53 0 0 32z m0 124c-10 0-16-6-16-16 0-9 6-16 16-16l53 0 0 32z m0-188c-10 0-16-7-16-16 0-10 6-16 16-16l53 0 0 32z m448 62l-53 0 0-32 53 0c10 0 16 6 16 16 0 10-6 16-16 16z m0 62l-53 0 0-32 53 0c10 0 16 7 16 16 0 10-6 16-16 16z m0-124l-53 0 0-32 53 0c10 0 16 6 16 16 0 9-6 16-16 16z m-238 249l0 53c0 10-7 16-16 16-10 0-16-6-16-16l0-53z m124 0l0 53c0 10-6 16-16 16-9 0-16-6-16-16l0-53z m-62 0l0 53c0 10-6 16-16 16-10 0-16-6-16-16l0-53z m30-342l0-53c0-10 7-16 16-16 10 0 16 6 16 16l0 53z m-188 0l0-53c0-10 6-16 16-16 9 0 16 6 16 16l0 53z m32 342l0 53c0 10-7 16-16 16-10 0-16-6-16-16l0-53z m92-342l0-53c0-10 7-16 16-16 10 0 16 6 16 16l0 53z m-62 0l0-53c0-10 6-16 16-16 10 0 16 6 16 16l0 53z"/>
<glyph unicode="&#57442;" d="M462 347l-412 0c-20 0-34-14-34-33l0-116c0-19 14-33 34-33l412 0c20 0 34 14 34 33l0 116c0 19-14 33-34 33z m18-149c0-9-8-16-16-16l-414 0c-10 0-16 8-16 16l0 116c0 9 8 16 16 16l412 0c10 0 16-8 16-16l0-116z m-285 68c2 0 3 0 3 1 2 2 2 5 2 10 0 5 0 8-2 9-1 2-3 2-3 2-1 0-3 0-3-2-2-1-2-4-2-9 0-5 0-8 2-10 0-1 2-1 3-1z m48-39c2 0 3 0 3 2 2 1 2 5 2 9 0 5 0 8-2 10-1 2-1 2-3 2-1 0-3 0-3-2-2-2-2-5-2-10 0-4 0-8 2-9 0 0 2-2 3-2z m-192 67l0-75c0-13 10-22 23-22l201 0 0 121-201 0c-13-1-23-11-23-24z m203-41c4-3 5-8 5-15 0-6-1-11-5-14-3-3-6-5-11-5-5 0-9 2-11 5-3 3-5 8-5 14 0 7 2 12 5 15 3 3 6 5 11 5 5 0 8-2 11-5z m-11 43l-38-75-10 0 39 75z m-61-5c4 3 7 5 12 5 4 0 9-2 11-5 3-3 5-8 5-14 0-7-2-11-5-15-3-3-7-4-11-4-5 0-10 1-12 4-3 4-4 8-4 15 1 6 3 11 4 14z m-52-3c3 5 9 8 16 8 6 0 12-3 16-8 4-6 6-16 6-29 0-13-2-24-6-29-4-4-10-8-16-8-7 0-13 4-18 8-5 5-6 15-6 29 1 13 3 23 8 29z m-18 5l0-13-26 0-1-13c3 2 6 2 9 2 7 0 12-2 16-7 5-4 7-9 7-17 0-7-2-11-5-16-5-7-11-10-19-10-7 0-13 2-16 5-5 3-7 8-8 14l11 4c0-4 2-5 3-8 2-2 5-4 7-4 3 0 4 2 8 4 3 1 3 6 3 11 0 5-2 8-3 9-2 2-5 4-8 4-4 0-8-2-12-5l-9 3 6 37z m29-59c1-2 3-2 5-2 1 0 3 0 4 2 2 1 2 3 4 6 1 3 1 10 1 18 0 8 0 14-1 17-2 3-2 5-4 7-1 1-3 1-4 1-2 0-4 0-5-1-2-2-2-4-3-7-2-3-2-9-2-17 0-8 0-15 2-18 1-3 3-5 3-6z"/>
<glyph unicode="&#57443;" d="M462 347l-412 0c-20 0-34-14-34-33l0-116c0-19 14-33 34-33l412 0c20 0 34 14 34 33l0 116c0 19-14 33-34 33z m18-149c0-9-8-16-16-16l-414 0c-10 0-16 8-16 16l0 116c0 9 8 16 16 16l412 0c10 0 16-8 16-16l0-116z m-195 29c1 0 3 0 3 2 2 1 2 5 2 9 0 5 0 8-2 10-2 2-2 2-3 2-2 0-3 0-3-2-2-2-2-5-2-10 0-4 0-8 2-9 0 0 1-2 3-2z m-48 39c1 0 3 0 3 1 2 2 2 5 2 10 0 5 0 8-2 9-2 2-2 2-3 2-2 0-3 0-3-2-2-1-2-4-2-9 0-5 0-8 2-10 0-1 1-1 3-1z m-186 28l0-75c0-13 10-22 23-22l276 0 0 121-276 0c-13-1-23-11-23-24z m245-41c3-3 5-8 5-15 0-6-2-11-5-14-3-3-6-5-11-5-5 0-10 2-11 5-4 3-5 8-5 14 0 7 1 12 5 15 3 3 6 5 11 5 5 0 9-2 11-5z m-11 43l-39-75-9 0 38 75z m-61-5c3 3 6 5 11 5 5 0 10-2 11-5 4-3 5-8 5-14 0-7-1-11-5-15-3-3-6-4-11-4-5 0-9 1-11 4-3 4-5 8-5 15 2 6 3 11 5 14z m-53-3c3 5 10 8 16 8 7 0 13-3 16-8 5-6 7-16 7-29 0-13-2-24-7-29-3-4-9-8-16-8-6 0-13 4-17 8-5 5-7 15-7 29 2 13 3 23 8 29z m-62 5l46 0 0-10c-3-3-8-9-11-16-5-6-6-14-10-22-1-8-3-16-3-23l-13 0c0 10 2 21 7 31 3 9 9 19 16 27l-32 0z m75-59c2-2 3-2 5-2 1 0 3 0 5 2 1 1 1 3 3 6 1 3 1 10 1 18 0 8 0 14-1 17-2 3-2 5-3 7-2 1-4 1-5 1-2 0-3 0-5-1-2-2-2-4-3-7-2-3-2-9-2-17 0-8 0-15 2-18 0-3 1-5 3-6z"/>
<glyph unicode="&#57444;" d="M362 250c-2 0-4 0-4-2-1-2-1-5-1-10 0-4 0-8 1-9 2-2 2-2 4-2 1 0 3 0 3 2 1 1 1 5 1 9 0 5 0 8-1 10 0 2-2 2-3 2z m-148 32c-1 1-3 1-4 1-2 0-4 0-5-1-2-2-2-4-3-7-2-3-2-9-2-17 0-8 0-15 2-18 1-3 1-5 3-6 1-2 3-2 5-2 1 0 3 0 4 2 2 1 2 3 4 6 1 3 1 10 1 18 0 8 0 14-1 17-2 3-4 5-4 7z m100 6c-2 0-4 0-4-2-1-1-1-4-1-9 0-5 0-8 1-10 2-1 2-1 4-1 1 0 3 0 3 1 1 2 1 5 1 10 0 5 0 8-1 9 0 2-2 2-3 2z m-44-6c-1 1-3 1-4 1-2 0-4 0-5-1-2-2-2-4-3-7-2-3-2-9-2-17 0-8 0-15 2-18 1-3 1-5 3-6 1-2 3-2 5-2 1 0 3 0 4 2 2 1 2 3 4 6 1 3 1 10 1 18 0 8 0 14-1 17-2 3-4 5-4 7z m170 35l-366 0c-13 0-23-10-23-23l0-75c0-13 10-22 23-22l364 0c13 0 23 9 23 22l0 75c1 13-8 23-21 23z m-275-95l-13 0 0 52c-5-5-11-8-18-12l0 13c4 2 8 3 12 7 4 3 6 6 8 11l11 0z m61 7c-4-5-10-8-16-8-7 0-13 3-18 8-5 5-6 14-6 29 0 12 1 24 6 28 3 5 10 8 16 8 6 0 13-3 16-8 5-6 6-16 6-28 2-13 0-23-4-29z m56 0c-4-5-10-8-16-8-7 0-13 3-18 8-5 5-6 14-6 29 0 12 1 24 6 28 3 5 10 8 16 8 6 0 13-3 16-8 5-6 6-16 6-28 2-13 0-23-4-29z m20 33c-3 4-4 8-4 15 0 6 1 11 4 14 4 3 7 5 12 5 4 0 9-2 11-5 3-3 5-8 5-14 0-7-2-11-5-15-3-3-7-4-11-4-5 0-8 1-12 4z m12-43l38 75 10 0-39-75z m60 5c-3-3-6-5-11-5-5 0-9 2-11 5-3 3-5 8-5 14 0 7 2 12 5 15 3 3 6 5 11 5 5 0 10-2 11-5 4-3 5-8 5-15-1-6-3-11-5-14z m122-26l0 116c0 19-14 33-34 33l-412 0c-20 0-34-14-34-33l0-116c0-19 14-33 34-33l412 0c20 0 34 14 34 33z m-16 0c0-9-8-16-16-16l-414 0c-10 0-16 8-16 16l0 116c0 9 8 16 16 16l412 0c10 0 16-8 16-16l0-116z"/>
<glyph unicode="&#57445;" d="M394 310c-23 0-42-19-42-41 0-23 19-42 42-42 22 0 41 19 41 42 0 22-17 41-41 41z m75 64l-426 0c-14 0-27-12-27-27l0-158c0-13 10-24 22-26 2-14 13-24 28-24l27 0c14 0 24 10 25 24l277 0c2-13 13-24 26-24l27 0c14 0 26 11 27 24 13 3 23 13 23 26l0 158c-2 15-15 27-29 27z m-384-161c0-7-5-10-10-10-5 0-11 3-11 10l0 113c0 7 5 10 11 10 7 0 10-5 10-10z m35 0c0-7-5-10-10-10-4 0-9 5-9 10l0 113c0 7 5 10 9 10 5 0 10-5 10-10z m34 0c0-7-5-10-10-10-5 0-10 5-10 10l0 113c-1 7 4 10 10 10 6 0 10-5 10-10z m240-16c-40 0-74 32-74 73 0 40 32 74 74 74 40 0 73-32 73-74 0-41-32-73-73-73z"/>
<glyph unicode="&#57446;" d="M274 478c0 10-8 18-18 18-10 0-18-8-18-18l0-17 34 0 0 17z m0-342l-34 0 0-53c0-9-70-65-70-65l40 0 46 44 50-44 36 0-70 65z m196 258c15 0 26 11 26 25 0 15-11 26-26 26l-428 0c-15 0-26-11-26-26 0-14 11-25 26-25l25 0 0-207-16 0c-14 0-19-8-19-17 0-10 6-18 19-18l405 0c14 0 21 8 21 18 0 17-21 17-21 17l-13-1 0 208z m-283-173c-62 0-69 69-69 69 0 67 69 68 69 68l0-68 69 0c0-69-69-69-69-69z m120 69l-17 0 0 17 17 0z m0 51l-17 0 0 17 17 0z m77-51l-50 0c-4 0-9 3-9 9 0 5 3 10 9 10l50 0c5 0 10-3 10-10-2-6-5-9-10-9z m0 51l-50 0c-4 0-9 3-9 9 0 5 3 10 9 10l50 0c5 0 10-3 10-10-2-4-5-9-10-9z"/>
<glyph unicode="&#57447;" d="M445 205l51 51-51 51 19 69-69 19-19 69-69-19-51 51-51-51-69 19-19-69-69-19 19-69-51-51 51-51-19-69 69-19 19-69 69 19 51-51 51 51 69-19 19 69 69 19z"/>
<glyph unicode="&#57448;" d="M445 205l51 51-51 51 19 69-69 19-19 69-69-19-51 51-51-51-69 19-19-69-69-19 19-69-51-51 51-51-19-69 69-19 19-69 69 19 51-51 51 51 69-19 19 69 69 19z m-263 9l-30 0 0 68c0 6 0 11 0 12 0 2-2 2-3 2-2 0-3-2-3-3-2-2-2-7-2-13l0-66-30 0 0 96 30 0 0-9c2 3 5 6 8 8 3 1 6 3 11 3 5 0 10-2 13-3 3-2 5-5 6-10 2-3 2-9 2-17z m77 47l-38 0 0-21c0-5 0-8 1-8 0-2 2-2 4-2 1 0 3 2 4 4 0 1 2 4 2 9l0 13 27 0 0-6c0-7 0-12-1-15 0-3-4-6-5-9-2-4-7-7-11-8-5-2-10-4-16-4-7 0-12 2-16 4-5 1-8 4-12 8-3 3-4 6-4 9-2 3-2 10-2 16l0 29c0 8 2 14 3 19 2 5 7 8 11 11 5 4 12 4 18 4 8 0 14-2 21-5 5-3 9-8 11-13 2-5 3-13 3-22z m93-47l-32 0c-2 12-3 28-6 47 0-8-2-18-4-26l-3-21-32 0-13 96 26 0c0-3 2-20 6-56 0 4 4 23 7 56l24 0 6-56c2 16 3 36 7 56l25 0z m46 0l-27 0 0 24 27 0z m-3 29l-22 0-5 88 32 0z m-169 51c-2 0-4 0-4-1 0-2 0-5 0-10l0-6 8 0 0 6c0 5 0 8-1 10-2 1-2 1-3 1z"/>
<glyph unicode="&#57449;" d="M275 322c-1 0-3-2-5-4 0-1-1-6-1-12l0-64c0-8 0-13 1-13 0-2 2-2 5-2 3 0 3 2 5 3 2 2 2 7 2 13l0 64c0 7 0 11-2 13-2 2-3 2-5 2z m-88 0c-1 0-3-2-5-4 0-1-1-6-1-12l0-64c0-8 0-13 1-13 0-2 2-2 5-2 2 0 3 2 5 3 0 2 2 7 2 13l0 64c0 7 0 11-2 13-2 2-3 2-5 2z m162-32l0 33c0 3 0 5 0 7 0 1-2 1-3 1-2 0-2 0-4-1 0-2 0-4 0-7l0-32c0-3 0-6 0-6 0 0 2-2 4-2 1 0 1 0 3 2 0 0 0 1 0 5z m56-23c-2 0-2 0-3-1 0-2 0-4 0-7l0-32c0-3 0-6 0-6 0 0 1-2 3-2 1 0 1 0 3 2 0 1 0 3 0 6l0 34c0 3 0 5 0 6 0 0-2 0-3 0z m40-62l51 51-51 51 19 69-69 19-19 69-69-19-51 51-51-51-69 19-19-69-69-19 19-69-51-51 51-51-19-69 69-19 19-69 69 19 51-51 51 51 69-19 19 69 69 19z m-309 5l-32 0 0 68c0 10 0 16 0 18 0 2-2 3-3 5-5 1-10 3-16 3l-3 0 0 14c16 4 27 10 35 21l19 0z m88 43c0-10 0-18-2-21-1-5-3-8-6-13-3-5-8-6-13-8-5-1-9-3-16-3-8 0-14 2-19 3-5 2-10 5-13 8-3 3-5 8-6 11-2 5-2 12-2 20l0 44c0 12 2 21 3 28 2 6 7 11 13 14 7 3 13 5 23 5 6 0 12-2 19-3 6-4 9-5 13-10 3-3 4-8 6-13 2-5 2-11 2-21z m88 0c0-10 0-18-2-21-1-5-3-8-6-13-3-3-8-6-13-8-3-3-9-3-14-3-8 0-15 2-19 3-5 2-10 5-13 8-3 3-5 8-7 11-1 4-1 12-1 20l0 44c0 12 1 21 3 28 2 6 6 11 13 14 6 3 13 5 22 5 7 0 13-2 19-3 5-4 10-5 13-10 3-3 5-8 7-13 1-5 1-11 1-21z m11 29c-1 3-1 6-1 12l0 24c0 7 0 12 1 15 2 3 3 5 8 8 3 1 8 3 15 3 6 0 11-2 14-3 3-2 6-5 8-8 2-3 2-8 2-15l0-22c0-6 0-10-2-13-2-3-3-5-6-8-4-1-8-3-15-3-6 0-13 2-16 3-5 2-6 3-8 7z m32-74l-13 0 52 134 12 0z m74 24c0-6 0-10-2-13-1-3-3-5-6-8-5-1-10-3-15-3-6 0-11 2-16 3-3 2-6 5-8 8-1 3-1 7-1 13l0 24c0 6 0 11 1 14 2 4 4 7 8 8 4 2 8 4 15 4 6 0 11-2 14-4 3-1 7-4 8-8 2-3 2-8 2-14z"/>
<glyph unicode="&#57450;" d="M275 322c-1 0-3-2-5-4 0-1-1-6-1-12l0-64c0-8 0-13 1-13 0-2 2-2 5-2 2 0 3 2 5 3 2 2 2 7 2 13l0 64c0 7 0 11-2 13-2 2-3 2-5 2z m-88 0c-1 0-3-2-5-4 0-1-1-6-1-12l0-64c0-8 0-13 1-13 0-2 2-2 5-2 2 0 3 2 5 3 0 2 2 7 2 13l0 64c0 7 0 11-2 13-2 2-3 2-5 2z m162-32l0 33c0 3 0 5 0 7 0 1-2 1-3 1-2 0-2 0-4-1 0-2 0-4 0-7l0-32c0-3 0-6 0-6 0 0 2-2 4-2 1 0 1 0 3 2 0 0 0 1 0 5z m56-23c-2 0-2 0-3-1 0-2 0-4 0-7l0-32c0-3 0-6 0-6 0 0 1-2 3-2 1 0 1 0 3 2 0 1 0 3 0 6l0 34c0 3 0 5 0 6 0 0-2 0-3 0z m40-62l51 51-51 51 19 69-69 19-19 69-69-19-51 51-51-51-69 19-19-69-69-19 19-69-51-51 51-51-19-69 69-19 19-69 69 19 51-51 51 51 69-19 19 69 69 19z m-309 5l-32 0 0 68c0 10 0 16 0 18 0 2-2 3-3 5-5 1-10 3-16 3l-3 0 0 14c16 4 27 10 35 21l19 0z m88 43c0-10 0-18-2-21-1-5-3-8-6-13-3-5-8-6-13-8-5-1-9-3-16-3-8 0-14 2-19 3-5 2-10 5-13 8-3 3-5 8-6 11-2 5-2 12-2 20l0 44c0 12 2 21 3 28 2 6 7 11 13 14 7 3 13 5 23 5 6 0 12-2 19-3 6-4 9-5 13-10 3-3 4-8 6-13 2-5 2-11 2-21z m88 0c0-10 0-18-2-21-1-5-3-8-6-13-3-3-8-6-13-8-3-3-9-3-14-3-8 0-15 2-19 3-5 2-10 5-13 8-3 3-5 8-7 11-1 4-1 12-1 20l0 44c0 12 1 21 3 28 2 6 6 11 13 14 6 3 13 5 22 5 7 0 13-2 19-3 5-4 10-5 13-10 3-3 5-8 7-13 1-5 1-11 1-21z m11 29c-1 3-1 6-1 12l0 24c0 7 0 12 1 15 2 3 3 5 8 8 3 1 8 3 15 3 6 0 11-2 14-3 3-2 6-5 8-8 2-3 2-8 2-15l0-22c0-6 0-10-2-13-2-3-3-5-6-8-4-1-8-3-15-3-6 0-13 2-16 3-5 2-6 3-8 7z m32-74l-13 0 52 134 12 0z m74 24c0-6 0-10-2-13-1-3-3-5-6-8-5-1-10-3-15-3-6 0-11 2-16 3-3 2-6 5-8 8-1 3-1 7-1 13l0 24c0 6 0 11 1 14 2 4 4 7 8 8 4 2 8 4 15 4 6 0 11-2 14-4 3-1 7-4 8-8 2-3 2-8 2-14z"/>
<glyph unicode="&#57451;" d="M494 259l-24 24 18 31c2 3 0 6-2 8l-30 17 8 32c0 3-2 7-3 7l-34 9 0 35c0 4-3 7-6 7l-34 0-9 33c0 2-4 4-7 2l-33-10-18 31c-2 3-5 3-8 1l-30-17-24 24c-2 1-7 1-8 0l-24-24-31 17c-3 2-6 0-8-1l-17-31-29 10c-3 2-7 0-8-3l-8-34-35 0c-4 0-7-3-7-6l0-34-32-8c-3-1-5-5-3-8l10-33-31-18c-3-2-3-5-1-8l17-30-24-24c-1-2-1-7 0-8l24-24-17-31c-2-3 0-6 1-8l31-17-10-29c-2-3 2-7 3-7l34-9 0-34c0-3 3-6 6-6l34 0 9-34c0-3 4-5 7-3l33 10 18-31c2-3 5-3 8-1l30 17 24-24c2-1 7-1 8 0l24 24 31-17c3-2 6 0 8 1l17 31 34-10c3-2 6 2 6 3l10 34 34 0c3 0 6 3 6 6l0 34 34 9c3 2 4 4 3 7l-10 33 31 18c3 2 3 5 1 8l-17 30 24 24c-2 0-2 4-4 5z"/>
<glyph unicode="&#57452;" d="M221 301c-2 0-3 0-5-2 0-1-2-5-2-11l0-8 10 0 0 8c0 6 0 10-2 11 2 0 0 2-1 2z m273-42l-24 24 18 31c2 3 0 6-2 8l-30 17 8 32c2 3-2 7-3 7l-34 9 0 35c0 4-3 7-6 7l-34 0-9 33c0 2-4 4-7 2l-33-10-18 31c-2 3-5 3-8 1l-30-17-24 24c-2 1-7 1-8 0l-24-24-31 17c-3 2-6 0-8-1l-17-31-29 10c-3 2-7 0-8-3l-8-34-35 0c-4 0-7-3-7-6l0-34-32-8c-3-1-5-5-3-8l10-33-31-18c-3-2-3-5-1-8l17-30-24-24c-1-2-1-7 0-8l24-24-17-31c-2-3 0-6 1-8l31-17-10-29c-2-3 2-7 3-7l34-9 0-34c0-3 3-6 6-6l34 0 9-34c0-3 4-5 7-3l33 10 18-31c2-3 5-3 8-1l30 17 24-24c2-1 7-1 8 0l24 24 31-17c3-2 6 0 8 1l17 31 34-10c3-2 6 2 6 3l10 34 34 0c3 0 6 3 6 6l0 34 34 9c3 2 4 4 3 7l-10 33 31 18c3 2 3 5 1 8l-17 30 24 24c-2 0-2 4-4 5z m-321-51l-34 0 0 75c0 8 0 13 0 15 0 1-1 3-5 3-1 0-3-2-4-3 0-2-2-7-2-15l0-75-32 0 0 109 34 0 0-10c1 3 4 7 9 10 2 1 7 3 11 3 7 0 10-2 15-5 3-3 6-6 6-9 2-5 2-12 2-21z m86 53l-43 0 0-24c0-5 0-8 2-10 0-1 1-1 4-1 4 0 5 1 5 3 2 1 2 5 2 11l0 14 32 0 0-8c0-6 0-11-2-16-1-3-3-8-6-11-3-5-7-6-11-9-5-2-12-4-18-4-6 0-13 2-19 4-5 1-10 4-13 8-3 3-5 8-6 11-2 5-2 9-2 19l0 32c0 10 2 18 3 22 3 5 7 10 13 13 6 3 13 5 21 5 9 0 17-2 22-5 7-3 10-8 13-14 3-7 3-15 3-24z m104-53l-35 0c-2 13-5 30-6 53-2-10-2-19-4-29l-4-24-37 0-15 109 29 0c0-3 3-24 8-63 0 4 3 24 8 63l27 0 7-63c1 18 3 39 8 63l29 0z m53 0l-30 0 0 27 30 0z m-3 34l-26 0-5 99 37 0z"/>
<glyph unicode="&#57453;" d="M494 259l-24 24 18 31c2 3 0 6-2 8l-30 17 8 32c0 3-2 7-3 7l-34 9 0 35c0 4-3 7-6 7l-34 0-9 33c0 4-4 5-7 4l-33-10-18 30c-2 4-5 4-8 2l-30-18-24 24c-2 2-7 2-8 0l-24-24-31 18c-3 2-6 0-8-2l-17-30-29 8c-3 2-7 0-8-3l-8-34-35 0c-4 0-7-3-7-6l0-34-32-8c-3-1-5-5-3-8l10-33-31-18c-3-2-3-5-1-8l17-30-24-24c-1-2-1-7 0-8l24-24-17-31c-2-3 0-6 1-8l31-17-10-29c-2-3 2-7 3-7l34-9 0-34c0-3 3-6 6-6l34 0 9-34c0-3 4-5 7-3l33 10 18-31c2-3 5-3 8-1l30 17 24-24c2-1 7-1 8 0l24 24 31-17c3-2 6 0 8 1l17 31 34-10c3-2 6 2 6 3l10 34 34 0c3 0 6 3 6 6l0 34 34 9c3 2 4 4 3 7l-10 33 31 18c3 2 3 5 1 8l-17 30 24 24c-2 0-2 4-4 5z m-364-51l-34 0 0 74c0 11 0 17 0 19 0 1-2 3-5 5-1 1-8 1-14 1l-5 0 0 16c16 3 29 11 37 23l21 0z m92 45c0-10 0-18-1-23-2-4-3-9-7-12-3-5-8-7-12-10-5-2-12-3-16-3-8 0-15 1-21 3-5 2-10 5-13 8-3 5-6 8-8 13 0 5-2 11-2 21l0 48c0 12 2 22 4 28 1 7 6 12 12 15 7 3 15 6 24 6 8 0 15-1 21-3 7-3 10-6 13-10 3-3 5-8 6-12 2-5 2-13 2-23z m93 0c0-10 0-18-1-23-2-4-4-9-7-12-3-4-8-7-13-10-4-2-11-3-16-3-8 0-14 1-20 3-5 2-10 5-13 8-3 3-5 8-7 13-1 5-1 11-1 21l0 48c0 12 1 22 3 28 2 7 6 12 13 15 6 3 14 6 24 6 8 0 14-1 21-3 6-3 9-6 12-10 4-3 5-8 7-12 1-5 1-13 1-23z m19 22c-3 2-6 5-8 8-1 3-1 8-1 13l0 24c0 6 0 11 1 14 2 4 5 7 8 8 4 2 8 4 15 4 6 0 11-2 16-4 3-1 6-4 8-8 1-3 1-8 1-14l0-24c0-6 0-11-1-14-2-4-3-7-8-8-3-2-10-4-15-4-6 2-12 4-16 5z m28-70l-13 0 53 141 12 0z m76 25c0-6 0-11-1-14-2-3-3-6-8-8-5-2-8-3-15-3-6 0-12 1-16 3-3 2-6 5-8 8-1 3-1 8-1 13l0 24c0 6 0 11 1 14 2 3 5 7 8 8 4 2 8 3 15 3 6 0 11-1 16-3 5-1 6-5 8-8 1-3 1-8 1-14z m-163 95c-3 0-5-2-5-3-1-2-1-7-1-13l0-67c0-8 0-13 1-15 2-1 2-3 5-3 3 0 5 2 5 3 0 2 2 7 2 13l0 67c0 8 0 11-2 13 0 5-2 5-5 5z m79-34l0 35c0 4 0 7 0 7 0 1-2 1-4 1-1 0-3 0-3-1 0-2 0-3 0-7l0-33c0-3 0-7 0-7 0 0 2-1 3-1 2 0 2 0 4 1 0 0 0 2 0 5z m-172 34c-3 0-4-2-4-3 0-2-2-7-2-13l0-67c0-8 0-13 2-15 0-1 1-3 4-3 4 0 5 2 5 3 2 2 2 7 2 13l0 67c0 8 0 11-2 13 0 5-1 5-5 5z m231-56c-2 0-3 0-3-2 0-1 0-3 0-6l0-34c0-3 0-6 0-6 0 0 1-2 3-2 1 0 3 0 3 2 0 1 0 3 0 6l0 35c0 4 0 7 0 7 0-2-2 0-3 0z"/>
<glyph unicode="&#57454;" d="M378 307c-4 0-5 0-5-3 0-3-2-6-2-13l0-9 13 0 0 9c0 7 0 11-2 13-1 2-1 3-4 3z m116-48l-24 24 18 31c2 3 0 6-2 8l-30 17 8 32c0 3-2 7-3 7l-34 9 0 35c0 4-3 7-6 7l-34 0-9 33c0 4-4 5-7 4l-33-10-18 30c-2 4-5 4-8 2l-30-18-24 24c-2 2-7 2-8 0l-24-24-31 18c-3 2-6 0-8-2l-17-30-29 8c-3 2-7 0-8-3l-8-34-35 0c-4 0-7-3-7-6l0-34-32-8c-3-1-5-5-3-8l10-33-31-18c-3-2-3-5-1-8l17-30-24-24c-1-2-1-7 0-8l24-24-17-31c-2-3 0-6 1-8l31-17-10-29c-2-3 2-7 3-7l34-9 0-34c0-3 3-6 6-6l34 0 9-34c0-3 4-5 7-3l33 10 18-31c2-3 5-3 8-1l30 17 24-24c2-1 7-1 8 0l24 24 31-17c3-2 6 0 8 1l17 31 34-10c3-2 6 2 6 3l10 34 34 0c3 0 6 3 6 6l0 34 34 9c3 0 4 4 3 7l-10 33 31 18c3 2 3 5 1 8l-17 30 24 24c-2 0-2 4-4 5z m-324-45c-4-4-7-9-13-12-7-4-15-5-23-5-9 0-17 1-25 5-8 3-13 9-16 14-3 5-3 13-3 24l0 6 33 0 0-8c0-6 0-11 2-12 1-2 3-4 5-4 3 0 4 0 6 2 2 2 2 5 2 8 0 6 0 10-2 11-2 2-10 7-22 13-12 6-18 13-21 18-3 4-3 11-3 19 0 9 1 17 3 22 3 5 6 8 13 11 6 4 14 4 22 4 8 0 16-2 21-4 6-1 9-4 13-8 3-3 4-6 6-9 2-3 2-8 2-15l0-8-34 0 0 7c0 6 0 9-2 11 0 2-1 2-4 2-2 0-4 0-5-2-2-2-2-3-2-6 0-4 0-7 0-8 0-2 2-4 5-7 3-1 8-5 16-9 11-5 19-12 22-16 4-5 5-12 5-21 2-10 0-16-1-23z m99-12l-37 0 0 11c-2-5-5-8-10-10-3-1-8-3-12-3-7 0-13 2-20 6-6 4-8 13-8 24l0 10c0 10 2 16 5 19 3 3 10 8 23 13 12 5 19 8 20 10 2 1 2 4 2 11 0 6 0 11-2 13-1 1-3 3-4 3-4 0-5-2-5-3 0-2-2-7-2-13l0-13-37 0 0 8c0 10 2 18 4 22 1 5 6 10 12 15 7 5 16 6 28 6 12 0 22-1 28-6 7-5 12-10 12-18 0-8 1-21 1-41l0-64z m53 0l-40 0 0 153 40 0z m100 60l-49 0 0-27c0-6 0-9 1-11 2-2 4-3 5-3 3 0 5 1 7 3 1 2 1 6 1 13l0 16 37 0 0-10c0-8 0-14-2-17-1-5-3-8-6-13-3-5-8-8-14-11-5-2-13-4-21-4-8 0-16 2-21 4-6 1-11 4-14 9-4 5-7 8-7 13 0 5-1 13-1 21l0 37c0 11 1 19 4 25 4 7 8 11 15 15 6 3 14 4 24 4 11 0 19-1 27-6 6-5 11-10 14-16 4-6 5-16 5-29l0-13z m-203-12c-1-4-1-8-1-13 0-7 0-11 1-13 2-2 3-3 5-3 3 0 3 0 5 1 0 2 1 5 1 12l0 25c-6-3-11-6-11-9z"/>
<glyph unicode="&#57455;" d="M416 485c-18 11-37 11-42 11-1 0-1 0-1 0l-239 0 0-22 239 0c0 0 0 0 1 0 4 0 20 0 31-8 13-8 24-20 24-50 0-328 0-328 0-328l22 0c0 0 0 0 0 328 0 35-17 58-35 69z m-70-40l-229 0c-31 0-56-26-56-56l0-319c0-30 25-56 56-56l229 0c30 0 56 26 56 56l0 320c0 31-26 55-56 55z m33-373c0-18-14-34-33-34l-229 0c-18 0-34 15-34 34l0 318c0 18 15 34 34 34l229 0c17 0 33-14 33-34z m-208 181c-3 1-9 1-16 1l-37 0-19-91 19 0 8 35 13 0c8 0 15 0 16 0 5 0 10 2 13 4 3 1 6 3 8 6 3 3 5 6 6 11 2 5 4 10 4 13 0 5-2 10-4 13-4 3-8 6-11 8z m-9-32c-2-3-5-5-8-7-4-1-10-1-20-1l-6 0 6 27 13 0c7 0 10 0 11-2 2 0 4-1 5-3 2-1 2-3 2-5 0-3-2-6-3-9z m190 19c-2 3-3 5-6 8-4 2-5 3-8 5-4 1-7 1-10 1-2 0-6 0-13 0l-24 0-19-91 32 0c8 0 14 0 18 2 6 1 12 5 17 8 7 5 11 11 15 17 3 7 6 16 6 26 0 5 0 10-2 13-3 5-4 8-6 11z m-18-42c-3-6-6-9-9-12-3-2-5-4-8-5-3-2-8-2-15-2l-9 0 13 63 11 0c5 0 9 0 11-2 3-2 6-3 8-6 2-4 3-8 3-15 0-9-1-16-5-21z m-104 44c5 0 10-2 13-4 3-1 5-6 5-9l18 1c0 8-4 15-10 21-6 5-14 8-26 8-11 0-19-3-24-8-4-5-8-11-8-19 0-5 2-8 4-11 1-3 4-7 8-8 3-2 8-5 16-8 6-3 11-5 12-7 2-1 4-4 4-6 0-3-2-6-5-8-3-2-8-3-13-3-8 0-13 1-16 5-2 1-3 6-3 11l-18-2c0-6 2-11 3-16 2-5 7-8 13-11 7-3 13-3 21-3 11 0 21 3 27 8 7 6 10 13 10 21 0 6-2 11-7 16-3 3-9 6-20 11-7 3-12 5-13 6-2 2-3 3-3 7 0 3 1 4 3 6 1 0 5 2 9 2z"/>
<glyph unicode="&#57456;" d="M496 258c-2 14-11 84-75 120-91 0-136 0-155 0 0 0 0 0-20 0-20 0-64 0-155 0-64-36-73-108-75-120 0 0 0 0 0-2 0 0 0-2 0-2 0 0 11-84 75-120 91 0 136 0 155 0 0 0 0 0 20 0 20 0 64 0 155 0 64 36 73 108 75 120 0 0 0 2 0 4 0-2 0 0 0 0z m-104-90l-272 0 0 179 272 0z m77 86l-32 0 0-32-37 0 0 36 32 0 0 32 35 0 0-36z"/>
<glyph unicode="&#57457;" d="M344 94c157 53 150 152 152 176 0 194-173 226-242 224-193-6-240-131-238-212 10-293 354-263 354-263-101 34-42 72-26 75z m-298 175c0 0-1 120 93 168 96 51-70-42-93-168z m228-178c-5-5-12-8-18-8-6 0-13 3-18 8-4 5-8 11-8 18 0 6 4 13 8 17 5 5 12 8 18 8 6 0 13-3 18-8 4-4 8-11 8-17 0-7-2-13-8-18z m-58 125c10-10 22-14 40-14 5 0 11 1 19 3 7 3 11 3 13 3 5 0 8-2 11-5 3-3 5-8 5-13 0-14-16-22-50-22-19 0-38 5-52 14-18 12-28 26-28 45 0 19 10 34 28 45 16 10 33 14 52 14 37 0 64 12 79 32 5 7 6 13 6 20 0 6-1 12-6 19-15 21-42 32-79 32-36 0-64-11-78-32-5-7-6-13-6-19 0-12-7-18-18-18-11 0-18 6-18 18 0 27 15 48 42 64 24 14 50 20 78 20 29 0 55-6 79-20 27-16 41-39 41-64 0-28-14-48-41-64-24-15-50-21-79-21-20 0-35-7-43-18-1-3-3-6-3-8 2-3 3-6 8-11z"/>
<glyph unicode="&#57458;" d="M496 90c0 0-40 44-46 51 19 33 30 73 30 115 0 128-104 232-232 232-128 0-232-104-232-232 0-128 104-232 232-232 56 0 106 19 146 51 6-5 41-51 41-51l61 0z m-248 11c-85 0-155 69-155 155 0 85 69 155 155 155 32 0 62-9 86-27l-3 0-105-104c-13-13-13-32 0-43 12-13 32-13 43 0l109 109c-2 1-20 24-44 43l26 25 43-46-24-24c16-24 24-56 24-86 0-87-70-157-155-157z m131 241c-1 0-1 0 0 0-1 0-1 0 0 0z"/>
<glyph unicode="&#57459;" d="M352 438c-16 4-27-1-29 5-3 11-8 23-14 35 0 0-147 23-186 18-3-2-11 0-19 0-10 0-35-6-35-16l0-443 25-21 24 21 0 133c0 0 4 3 7 6 24 13 137 53 181 46l0-30c28-38 134 2 134 2l2 262c-50-16-48-29-90-18z m-227-238c-2-3-5-2-5-2l0 279c0 1 2 8 5-2 19-38 33-195 0-275z m302 160l-33 0 0-34 33 0 0-33-33 0 0-34 33 0 0-33-33 0 0-18-34 0 0 18-34 0 0 33-17 0 0-19-18 0 0 18-35 0 0-18-34 0 0 18-33 0 0-34-35 0 0 34 33 0 0 33-33 0 0 34 33 0 0 35-33 0 0 34 33 0 0 33-33 0 0 35 33 0 0-33 34 0 0 33 35 0 0-33 34 0 0-34 17 0 0 32 18 0 0-33 33 0 0 17 34 0 0-17 34 0 0-34z m-69-69l-33 0 0-33 33 0z m0 0l34 0 0 34-34 0z m0-69l34 0 0 34-34 0z m0 172l0-34 34 0 0 34z m-68-103l0-33 17 0 0 33z m-68 0l0-33 34 0 0 33z m103 34l33 0 0 35-33 0z m-18 0l0-34 18 0 0 34z m18 35l0 34-18 0 0-34z m-69 34l0 33-34 0 0-33z m0-69l0-34 34 0 0 34z m-34 69l-33 0 0-34 33 0z m85-69l0 35-17 0 0-34 17 0z m-85 0l-33 0 0-34 33 0z m34 35l34 0 0 34-34 0z m0 0l-34 0 0-34 34 0z"/>
<glyph unicode="&#57460;" d="M427 496l-29 0 0-16 29 0z m2-110l-3 0 0 80-29 0 0-80-314 0c-35 0-64-29-64-64l0-223c0-33 26-61 59-64 0 0 0-1 0-1 0-8 7-16 16-16l28 0c8 0 16 6 16 16 0 0 0 1 0 1l244 0c0 0 0-1 0-1 0-8 7-16 16-16l28 0c8 0 16 6 16 16 0 1 0 1 0 1 32 3 59 31 59 64l0 223c-7 35-37 64-72 64z m19-288c0-10-8-18-18-18l-347 0c-9 0-19 8-19 18l0 224c0 9 8 17 18 17l345 0c10 0 18-8 18-17l0-224z m-366-5l166 0 0 230-166 0z m43 30l-16 0 0 16 14 0 0-16z m14-14l-14 0 0 13 14 0z m0 29l-14 0 0 16-16 0 0 16 14 0 0-16 15 0z m-30 78l0 16 14 0 0-16 15 0 0-16-13 0 0 16z m62 0l0-16-16 0 0 16-14 0 0 16 14 0 0-16z m31 0l0-16-15 0 0 16-14 0 0 16 14 0 0-16z m-16-16l0-14-15 0 0-16-16 0 0 14 15 0 0 16z m0 46l-15 0 0-16-16 0 0 15 15 0 0 16 14 0 0-15z m-31-46l0-14-14 0 0-16-16 0 0 14 14 0 0 16z m0 46l-14 0 0-16-16 0 0 15 14 0 0 16 15 0 0-15z m0-123l-16 0 0 16 15 0 0-16z m16-14l-16 0 0 13 15 0z m0 29l-16 0 0 16-14 0 0 16 14 0 0-16 15 0 0-16z m15-15l-15 0 0 16 15 0z m16-14l-15 0 0 13 15 0z m0 29l-15 0 0 16-14 0 0 16 14 0 0-16 15 0z m32-29l-16 0 0 13 16 0z m0 61l-16 0 0-16 16 0 0-16-16 0 0-16-16 0 0 16 16 0 0 16-15 0 0 16 16 0 0 14 16 0z m0 62l-16 0 0-16 16 0 0-16-16 0 0-14-16 0 0-16-15 0 0 14 15 0 0 16 16 0 0 16-15 0 0 16 16 0 0 14 16 0z m-32 61l16 0 0 14 16 0 0-14-16 0 0-16 16 0 0-16-16 0 0-15-16 0 0-16-15 0 0 15 15 0 0 16 16 0 0 16-15 0z m-15 16l15 0 0-15-15 0z m-16-16l15 0 0-16 14 0 0-16-14 0 0 16-15 0z m-16 16l15 0 0-15-15 0z m-14-16l14 0 0-16 15 0 0-16-15 0 0 16-14 0z m-16 16l14 0 0-15-14 0z m-16-16l14 0 0-16 15 0 0-16-13 0 0 16-16 0z m-11 16l11 0 0-15-11 0z m0-32l11 0 0-16-11 0z m0-31l11 0 0 16 14 0 0-14-14 0 0-16-11 0z m0-30l11 0 0-16-11 0z m0-32l11 0 0 16 14 0 0-14-14 0 0-16-11 0z m0-30l11 0 0-16-11 0z m0-32l11 0 0-13-11 0z m168-29l166 0 0 230-166 0z m52 16c-17 0-30 14-30 30 0 18 14 31 30 31 18 0 31-15 31-31 0-16-13-30-31-30z m74 13c-10 0-18 8-18 17 0 10 8 18 18 18 10 0 18-8 18-18 0-9-8-17-18-17z m-114 158c0 8 7 16 16 16l109 0c8 0 16-6 16-16l0-21c0-8-6-16-16-16l-109 0c-8 0-16 7-16 16z"/>
<glyph unicode="&#57461;" d="M232 306c-34 0-61-28-61-61 0-34 27-61 61-61 34 0 61 27 61 61 1 33-27 61-61 61z m0 155c-118 0-216-98-216-216 0-120 98-216 216-216 120-2 216 96 216 216 0 118-96 216-216 216z m0-295c-43 0-77 36-77 77 0 43 35 77 77 77 43 0 77-35 77-77 1-41-34-77-77-77z m174 272c2 4 4 8 4 13 0 18-15 34-34 34-18 0-34-15-34-34 0-17 15-33 34-33 6 0 11 1 16 4 54-46 82-112 82-177 0-53-18-107-56-152-4-5-4-11 1-16 2-2 5-3 7-3 3 0 6 1 8 3 40 48 60 107 60 166 2 74-28 144-88 195z"/>
<glyph unicode="&#57462;" d="M99 182c-16 0-30 4-43 10-13 8-21 16-24 24-2 5-3 8-3 11 0 3-2 8-2 13 0 8 2 16 3 22 2 7 5 13 8 18 4 5 5 8 8 11 2 2 4 3 5 5l-35 19 112 3 51-97-32 17c-1-1-3-3-5-4-1-2-4-5-6-8-3-2-6-5-8-8-3-4-5-5-5-8-1-4-3-8-3-12 0-4 2-9 6-11 4-3 7-5 10-5z m323-14c12 0 21 3 31 8 9 5 16 10 22 14 7 7 11 12 15 15 3 3 4 6 6 9-2-6-5-12-8-19-3-6-8-13-13-22-3-7-5-10-6-13-3-5-5-11-8-18-7-14-13-27-18-35-5-8-9-17-14-25-5-8-11-15-16-20-5-4-11-8-18-8-5 0-22 0-57 0l0-40-60 95 60 94 0-37c56 2 83 2 84 2z m-217 326c11 0 32 0 62 2 31 0 55 0 69-2 14-1 24-6 27-12 0-2 2-5 5-10 3-5 6-10 10-16 3-6 6-11 9-14 2-4 3-7 5-8l34 19-47-104-115 9 32 20-42 68c-6 10-14 18-22 26-8 6-16 11-24 14-8 4-14 5-19 5-5 0-10 2-11 2 6 1 16 1 27 1z m-151-312c-12 5-20 13-24 21 2-1 4-6 7-11 3-5 6-11 11-19 5-8 10-18 14-26 5-9 10-16 12-21 1-3 1-4 3-4 3-8 8-16 11-23 3-6 8-13 11-21 5-6 10-12 13-17 5-5 10-7 13-7l125 2-2 120c-74 0-125-2-152-2-16 0-30 4-42 8z m356 5c-7 10-18 27-37 56-19 29-29 47-34 51l98 60c1-2 3-7 6-13 3-7 8-15 13-24 11-19 19-35 24-45 5-10 10-16 11-21 2-3 3-6 3-11 0-6-1-13-4-21-2-1-4-5-7-9-3-5-8-10-14-15-7-6-15-11-23-16-9-5-19-6-30-8 2 2-2 7-6 16z m-231 130l-97 54c1 2 6 10 14 23 2 3 5 9 13 19 6 11 13 21 17 29 5 8 10 14 13 20 2 5 3 8 5 10 2 5 5 8 10 10 4 1 11 3 19 4 3 0 8 0 13-1 4-2 12-3 19-7 6-3 16-8 24-14 8-6 14-14 21-26l1-1c2-3 3-5 5-7z"/>
<glyph unicode="&#57463;" d="M70 32c0-10 7-16 16-16l341 0c10 0 16 6 16 16l0 358-373 0z m288 315l16 0 0-297-16 0z m-54 0l16 0 0-297-16 0z m-56 0l16 0 0-297-16 0z m-56 0l16 0 0-297-16 0z m-54 0l16 0 0-297-16 0z m201 95l0 54-166 0 0-54-117 0 0-40 398 0 0 40z m-16 0l-134 0 0 38 134 0z"/>
<glyph unicode="&#57464;" d="M467 466l-137 0 0 12c0 10-8 18-18 18l-110 0c-10 0-18-8-18-18l0-12-139 0c-10 0-18-8-18-18l0-11c0-10 8-18 18-18l35 0 0-369c0-18 14-34 34-34l284 0c20 0 34 16 34 34l0 369 34 0c9 0 17 8 17 18l0 11c2 10-6 18-16 18z m-70-415l-282 0 0 368 282 0z m-144 18l5 0c9 0 17 8 17 17l0 296c0 10-8 18-17 18l-5 0c-10 0-18-8-18-18l0-296c0-9 8-17 18-17z m78 0l5 0c10 0 18 8 18 17l0 296c0 10-8 18-18 18l-5 0c-9 0-17-8-17-18l0-296c0-9 8-17 17-17z m-157 0l5 0c10 0 18 8 18 17l0 296c0 10-8 18-18 18l-5 0c-9 0-17-8-17-18l0-296c0-9 8-17 17-17z"/>
<glyph unicode="&#57465;" d="M374 451l-236 0c0 0-55-1-56-57l350 0c-2 56-58 57-58 57z m-86 45l-64 0c0 0-27-2-27-30l117 0c0 28-26 30-26 30z m-179-450c0-17 14-30 30-30l234 0c17 0 30 14 30 30l0 330-294 0z m217 279c0 8 7 14 15 14 8 0 14-6 14-14l0-255c0-8-6-14-14-14-8 0-15 6-15 14z m-84 0c0 8 6 14 14 14 8 0 14-6 14-14l0-255c0-8-6-14-14-14-8 0-14 6-14 14z m-85 0c0 8 6 14 14 14 8 0 15-6 15-14l0-255c0-8-7-14-15-14-8 0-14 6-14 14z"/>
<glyph unicode="&#57466;" d="M107 46c0-17 15-30 31-30l233 0c18 0 31 14 31 30l0 332-295 0z m219 280c0 8 7 15 15 15 8 0 14-7 14-15l0-256c0-8-6-14-14-14-8 0-15 6-15 14z m-84 0c0 8 6 15 14 15 8 0 14-7 14-15l0-256c0-8-6-14-14-14-8 0-14 6-14 14z m-87 0c0 8 7 15 15 15 8 0 14-7 14-15l0-256c0-8-6-14-14-14-8 0-15 6-15 14z m87 64l25 0 2 2 65 0c0 0-14 14-33 34l14 14c0 0 2 2 3 2 2 0 2 1 2 1 5 0 3 0 10-5 3-3 24-24 44-43 2-1 2-1 4-3l25 0c-24 24-56 56-61 61-6 6-12 9-20 9 0 0-2 0-2 0-6 0-10-1-13-4-1-4-3-5-3-5l-16-16c-22 22-46 46-50 49-8 8-11 10-17 10-7 0-15-6-15-6l-99-98z"/>
<glyph unicode="&#57467;" d="M435 235c-11 0-21-9-21-21 0-88-70-158-158-158-88 0-158 70-158 158 0 84 64 151 144 157l0-86 105 105-105 106 0-83c-103-7-184-93-184-199 0-108 88-198 198-198 110 0 198 90 198 198 0 12-8 21-19 21z"/>
<glyph unicode="&#57468;" d="M354 475c-31 13-61 21-95 21-5 0-11 0-16 0-3 0-8 0-11-2 0 0-2 0-2 0-41-4-81-19-113-43l-24 34c-2 3-3 3-7 3-1 0-4-2-4-5l-15-80-9-56c0-1 0-3 1-5 2-1 3-1 5-1l64 3 72 3c3 0 5 2 5 3 1 2 0 5-2 7l-30 27c19 13 40 21 62 22 7 2 15 2 21 2 85-2 154-70 152-155-2-85-70-154-155-152-85 1-154 70-152 155 0 8 1 14 1 22l-81 31c-3-16-7-34-7-51 0-132 108-240 239-242 133-2 241 106 241 238 4 98-56 184-140 221z"/>
<glyph unicode="&#57469;" d="M158 475c31 13 61 21 95 21 5 0 11 0 16 0 3 0 8 0 11-2 0 0 2 0 2 0 41-4 81-19 113-43l24 35c2 2 3 4 7 4 3 0 4-2 4-5l15-80 9-56c0-2 0-3-1-5-2-2-3-2-5-2l-64 4-72 3c-3 0-5 1-5 3-1 2 0 5 2 6l30 26c-19 13-40 21-62 22-7 2-15 2-21 2-85-2-154-70-152-155 2-85 70-154 155-152 85 1 154 70 152 155 0 8-1 14-1 22l81 31c3-16 7-34 7-51 1-133-106-242-239-242-133-2-241 106-243 238-2 98 58 184 142 221z"/>
<glyph unicode="&#57470;" d="M77 235c11 0 21-9 21-21 0-88 70-158 158-158 88 0 158 70 158 158 0 84-64 151-144 157l0-86-105 105 105 106 0-83c103-8 184-93 184-199 0-108-88-198-198-198-110 0-198 90-198 198 0 12 8 21 19 21z"/>
<glyph unicode="&#57471;" d="M464 136c-21-38-51-67-88-90-38-20-78-32-120-32-42 0-82 12-120 32-38 21-67 52-90 90-20 38-32 78-32 120 0 42 12 82 32 120 21 38 52 69 90 88 40 22 80 32 120 32 40 0 80-10 118-30 39-21 69-50 90-88 21-39 32-79 32-120 0-44-11-84-32-122z m-35 221c-18 32-43 56-75 73-32 18-64 26-98 26-34 0-67-8-99-26-32-17-56-41-74-73-17-32-27-66-27-101 0-35 10-67 27-99 18-32 43-56 74-74 32-17 65-27 99-27 35 0 67 10 99 27 32 18 56 43 74 74 17 32 27 65 27 99 0 35-8 69-27 101z m-95-163c8-37 15-64 21-74l-35 0c-5 8-10 30-18 64-8 37-22 51-54 53l-32 0 0-117-35 0 0 264c17 3 43 6 67 6 37 0 61-6 78-22 13-11 21-30 21-51 0-35-22-59-51-69l0-2c19-6 32-24 38-52z m-24 120c0 35-25 49-62 49-16 0-29-1-34-3l0-98 36 0c36 0 60 21 60 52z"/>
<glyph unicode="&#57472;" d="M16 126l0-48 173 0 0 48z m152 357c-5 5-14 5-19 0l-111-107c-6-6-6-14 0-21l328-331 0 128 128 0z"/>
<glyph unicode="&#57473;" d="M339 453l-166 0c-87 0-157-71-157-157 0-86 70-157 157-157 17 0 32 15 32 32 0 18-15 32-32 32-51 0-93 42-93 93 0 51 42 93 93 93l166 0c51 0 93-42 93-93 0-51-42-93-93-93l0 80-112-112 112-112 0 80c87 0 157 71 157 157 0 86-70 157-157 157z"/>
<glyph unicode="&#57474;" d="M253 256l-159 158 84 82 240-240-240-240-84 82z"/>
<glyph unicode="&#57475;" d="M256 496c-133 0-240-107-240-240 0-133 107-240 240-240 133 0 240 107 240 240 0 133-107 240-240 240z m-30-386l-50 50 96 96-96 96 50 50 145-146z"/>
<glyph unicode="&#57476;" d="M318 48l160 160c24 24 24 61 0 85l-171 171c-24 24-61 24-85 0-11-11-17-27-17-42 0-14 6-30 17-41l63-63-210 0c-32-3-59-28-59-62 0-34 27-59 59-59l221 0-62-63c-24-24-24-60 0-84 24-24 60-24 84-2z"/>
<glyph unicode="&#57477;" d="M253 496l-56-58 142-142-320 0 0-80 320 0-142-142 56-58 240 240z"/>
<glyph unicode="&#57478;" d="M296 456l200-200-200-200-133 0 152 152-299 0 0 98 299 0-152 150z"/>
<glyph unicode="&#57479;" d="M16 168l85-144 395 232-395 232-85-144 149-88z"/>
<glyph unicode="&#57480;" d="M246 454l-57-73 99-79-272 0 0-92 272 0-99-79 57-73 250 198z"/>
<glyph unicode="&#57481;" d="M475 488l-438 0c-11 0-21-8-21-19l0-274c0-11 10-21 21-21l440 0c11 0 21 10 21 21l0 274c-2 11-12 19-23 19z m-224-274l-35 44 59 46-161 0 0 56 161 0-59 46 35 44 149-119z m-27-190l64 0 0 138-64 0z"/>
<glyph unicode="&#57482;" d="M213 128c-2 0-3-2-5-5-2-5-2-13 2-16 0 0 1-1 1-1 2 0 3 0 5 0 2 1 3 4 3 9 0 3 0 8-1 10-2 1-4 3-5 3z m-72 114l-7 0 0-8 8 0c2 0 4 1 4 4 0 2-2 4-5 4z m121-114c-1 0-3-2-4-5-2-5-2-13 1-16 0 0 2-1 2-1 1 0 3 0 5 0 1 1 3 4 3 9 0 3 0 8-2 10 0 1-1 3-5 3z m-24 0c-1 0-3-2-4-5-2-5-2-13 1-16 0 0 2-1 2-1 1 0 3 0 5 0 1 1 3 4 3 9 0 3 0 8-2 10-1 1-3 3-5 3z m2 40c3 2 5 6 5 11 0 5 0 10-3 11-2 0-4 2-4 2-1 0-1 0-3-2-5-3-5-17 0-22 0-2 3-2 5 0z m78 22c-1 0-4 0-4 0l0-22c0 0 3 0 4 0 2 0 2 0 4 0 1 0 1 2 1 2 2 3 2 6 2 9 0 3-2 8-3 10 0 1-2 1-4 1z m-9 50l-3-10 6 0z m179-152c-13 22-198 342-210 362-9 17-35 17-44 0-16-28-200-346-210-362-11-19 3-40 22-40 15 0 397 0 420 0 22 0 32 22 22 40z m-182 160l4 0 12-34-5 0-3 10-12 0-3-10-5 0z m-36 0l5 0 0-29 16 0 0-5-21 0z m-43 0l21 0 0-5-8 0 0-29-5 0 0 29-8 0z m-3-82l0-4-21 0 0 33 5 0 0-29z m-26 82l5 0 0-14 13 0 0 14 5 0 0-34-5 0 0 15-13 0 0-15-5 0z m-52-34l-5 15-7 0 0-15-6 0 0 34 11 0c7 0 10-5 10-10 0-3-2-6-5-8l6-16z m17 0l-5 0 0 34 5 0z m7 16c0 7 1 12 3 15 1 1 5 3 8 3 5 0 9-3 9-8l-4-2c0 2-4 4-5 4-5 0-7-5-7-13 0-8 2-13 7-13 3 0 6 2 6 6l0 2-5 0 0 5 10 0 0-5c0-6-5-11-11-11-3 0-7 1-10 5-1 3-1 8-1 12z m6-59c-2 5-2 13 0 18 2 5 5 9 10 9 6 0 9-3 11-6-2 0-3-2-5-2-2 2-2 4-3 4-3 1-7 0-7-2-3-3-3-14 0-19 2-2 4-3 5-3 3 0 5 1 5 3 2 0 3-2 5-2-2-5-5-8-11-8-5-1-8 2-10 8z m22-70l-4 0 0 24c-2 0-2 0-4 0l0 3c2 0 4 2 4 2l3 0 0-29z m24 5c-1-4-4-5-8-5-4 0-6 1-8 5-1 3-3 6-3 11 0 5 2 8 2 11 1 3 3 5 8 5 5 0 6-2 8-5 5-6 5-18 1-22z m5 84c2 2 2 4 3 5 2 2 4 2 7 2 9 0 13-8 13-18 0-5 0-9-4-13-1-3-4-6-9-6-5 0-8 2-10 5-1 3-3 6-3 11 2 6 2 11 3 14z m21-84c-2-4-5-5-8-5-5 0-6 1-8 5-2 3-3 6-3 11 0 5 1 8 1 11 2 3 4 5 8 5 5 0 7-2 8-5 4-6 4-18 2-22z m24 0c-2-4-5-5-8-5-5 0-6 1-8 5-2 3-3 6-3 11 0 5 1 8 1 11 2 3 4 5 8 5 5 0 7-2 8-5 5-6 5-18 2-22z m0 57c-2-1-5-3-8-3-6 0-10 5-11 8 1 0 3 2 5 2 0 0 0-2 1-2 2-2 7-5 10-2 1 2 3 4 1 7 0 0 0 1-1 1-3 4-10 4-13 7-2 1-2 3-2 6 0 5 2 7 5 8 2 0 3 2 5 2 6 0 8-3 10-7-2 0-4-1-5-1 0 0 0 1-2 1-1 2-8 2-9 0 0-1 0-1 0-3 1-1 3-1 4-3 2 0 4-2 7-2 3-1 6-4 5-9 1-5 0-8-2-10z m6 34l21 0 0-5-14 0 0-8 9 0 0-8-9 0 0-10 16 0 0-4-21 0 0 35z m28-71l-15 0 0-8 10 0 0-4-10 0c0-5 0-10 0-13l-5 0 0 30 20 0z m22 2l-8 0c0-8 0-18 0-26l-5 0 0 26-6 0 0 5 19 0z m2 45c-2-5-4-8-7-10-1-1-5-1-8-1l-8 0 0 33c0 0 5 0 8 0 2 0 5 0 7 0 4 0 6-5 8-8 1-5 1-9 0-14z m20 41l-4 0-13 23 0-23-5 0 0 34 5 0 13-22 0 22 4 0z m28 0l-21 0 0 34 19 0 0-5-14 0 0-8 9 0 0-5-9 0 0-9 16 0z"/>
<glyph unicode="&#57483;" d="M226 187l9 0-5 16z m-34 82c0 3-3 6-6 6l-12 0 0-13 12 0c3 0 6 4 6 7z m83-130l-6 0 0-35 6 0c7 0 11 6 11 18 0 9-4 17-11 17z m215-53c-13 24-199 346-212 365-11 18-35 18-44 0-16-27-202-347-210-363-13-21 3-40 22-40 15 0 399 0 421 0 21 0 32 22 23 38z m-279 197l8 0 0-51-8 0z m-6-110l0-8-31 0 0 51 8 0 0-43z m-39 110l18 0c8 0 16-6 16-14 0-5-2-10-8-13l8-24-8 0-8 22-10 0 0-22-8 0z m39-187l-31 0 0 51 29 0 0-8-21 0 0-13 15 0 0-8-15 0 0-14 23 0z m45 0l-7 0-19 35 0-35-8 0 0 51 8 0 18-32 0 32 8 0z m-5 69l-5 14-16 0-5-14-8 0 18 51 8 0 17-51z m1 67c-4 0-11 3-12 8-4 5-4 10-4 19 0 10 2 18 5 21 3 3 8 6 13 6 6 0 13-4 16-11l-8-1c-2 3-5 6-8 6-6 0-10-6-10-18 0-12 4-19 10-19 5 0 8 3 8 8l0 2-8 0 0 8 16 0 0-10c-2-13-10-19-18-19z m13-16l8 0 18-32 0 32 8 0 0-51-7 0-19 35 0-35-8 0z m15-120l-13 0 0 51 16 0c11 0 19-11 19-25-2-16-10-26-22-26z m6 158l0-22-8 0 0 51 8 0 0-21 19 0 0 21 8 0 0-51-8 0 0 22z m37-160c-5 0-11 4-15 7-1 1-3 3-4 6l0 2 8 1c3-4 6-8 11-8 5 0 8 4 8 8 0 5-3 8-8 8l-5 2c-5 2-10 6-10 13 0 8 8 16 16 16 7 0 13-5 15-11l-8-4c-2 4-3 5-8 5-5 0-8-3-8-6 0-3 1-5 5-5l3 0c9-2 14-8 14-16 2-11-5-18-14-18z m19 71l-30 0 0 51 28 0 0-8-20 0 0-13 14 0 0-8-14 0 0-14 22 0z m10 112l-12 0 0-43-8 0 0 43-11 0 0 6 31 0z"/>
<glyph unicode="&#57484;" d="M165 130c-10 0-13-10-13-23 0-13 3-22 13-22 9 0 13 9 13 22 1 11-4 23-13 23z m325-44c-13 24-199 346-212 365-9 18-35 18-44 0-16-27-202-347-210-363-13-21 3-40 22-40 15 0 399 0 421 0 21 0 32 22 23 38z m-325-11c-15 0-23 13-23 32 0 18 8 32 23 32 14 0 22-13 22-32 0-17-8-32-22-32z m24 115c0-4 0-24 0-28l-34 0c0 4 0 24 0 28 0 28-1 53 13 76 14 24 40 43 78 52l0 2-8 14c0 0-1 4 0 8 2 5 7 4 7 4l72-21-47-59c0 0-3-4-8-2-4 2-4 6-4 6l-2 16 0 2c-30-6-51-22-61-38-8-16-8-36-6-60z m49-113l-8 0-24 43 0-43-8 0 0 61 8 0 23-42 0 42 8 0z m47 0l-34 0 0 61 8 0 0-52 26 0z m25 25l0-25-8 0 0 25-19 36 10 0 13-28 12 28 10 0z"/>
<glyph unicode="&#57485;" d="M485 90c-11 22-195 339-207 358-9 18-35 18-44 0-16-27-199-342-207-358-11-20 3-40 23-40 14 0 392 0 414 0 21 1 30 22 21 40z m-205 100c0 0-6-3-10 2-4 5-3 10-3 10l5 22-62 0c-7 0-10-5-10-10l0-107-45 0 0 131c0 18 15 32 32 32l85 0-6 23c0 0-2 5 3 9 5 5 9 2 9 2l82-56z"/>
<glyph unicode="&#57486;" d="M18 362c20-44 51-84 91-116 62-52 136-81 211-86l-6-64c0-3 1-8 4-10 4-1 8-1 10 2l96 80 69 56c1 2 3 5 3 8 0 3-2 5-3 6l-79 60-88 65c-3 2-6 3-9 0-3-1-5-5-5-9l8-63c-45 5-88 24-123 55-26 22-45 48-59 76-4 4-5 5-8 5-2 0-5 0-8 0l-101-54c-5-2-7-8-3-11z"/>
<glyph unicode="&#57487;" d="M256 496c-133 0-240-107-240-240 0-133 107-240 240-240 133 0 240 107 240 240 0 133-107 240-240 240z m0-440c-110 0-200 90-200 200 0 48 18 91 45 126l53-52c-8-8-12-20-12-31l0-187 64 0 0 152c0 3 2 6 4 10l172-173c-35-27-78-45-126-45z m54 222l-8-32c0 0 0-3 0-6l-38 38z m101-147l-99 99c5 0 8 2 8 2l117 80-117 80c0 0-8 5-14-2-7-6-5-14-5-14l8-32 0-2-111 0-67 69c34 27 77 45 125 45 110 0 200-90 200-200 0-48-18-91-45-125z"/>
<glyph unicode="&#57488;" d="M478 469l-444 0c-10 0-18-8-18-18l0-142c0-10 8-18 18-18l0-230c0 0-2-18 17-18l19 0c0 0 18 0 18 18l0 35 338 0 0-34c0-17 17-19 17-19l18 0c17 0 17 19 17 19l0 229c10 0 18 8 18 18l0 142c0 10-8 18-18 18z m-124-18l-143-142-70 0 142 142z m-320 0l36 0-36-35z m36-142l-36 0 0 35 108 107 71 0z m16-123l20 0-20-18z m0-72l0 17 71 55 53 0-88-72z m88 0l92 70 52 0-88-70z m215 0l35 35 0-35z m-53 0l-53 0 90 70 53 0z m90 89l-340 0 0 90 338 0 0-90z m52 106l-52 0 52 53z m0 125l-123-125-72 0 143 142 52 0z"/>
<glyph unicode="&#57489;" d="M482 93c-13 22-192 334-204 353-9 18-33 18-44 0-16-27-194-336-204-352-11-19 4-38 23-38 14 0 385 0 408 0 21-2 30 19 21 37z m-207 211c13 0 23-10 23-22 0-13-10-23-23-23-13 0-22 10-22 23 0 12 9 22 22 22z m-88-104l-46 0 0 54 46 0z m154 30l-45 4 10-135-13 0-18 77-11-77-13 0 2 135-61 11 0 9 101 0 38-6 3 16 13 0z"/>
<glyph unicode="&#57490;" d="M443 248l-64-14-5-79 50-125-34-14-54 112-6 59-26-48-6-121-37-2 3 130 37 107-10 62-27-17-22-8-2-8 18 0 0-44-39 0 18-86-26 0-1-18 33-92-30-12-35 100 1 22-11 0-14-22 4-103-30 0-5 114 8 11-16 0 26 86 6 48-13-17-48-35-17 20 54 47 23 64 17 13 39 3 35-59 30 16 27 65 13 13 29 10 43-23 47-70-10-29 14 3z m-70 98l3-52 10 2 4 29z m-71 80c-19 0-35 16-35 35 0 19 16 35 35 35 20 0 36-16 36-35 0-19-16-35-36-35z m-129-39c-16 0-29 13-29 29 0 16 13 29 29 29 16 0 29-13 29-29 0-16-13-29-29-29z"/>
<glyph unicode="&#57491;" d="M485 90c-11 22-195 339-207 358-9 18-35 18-44 0-16-27-199-342-207-358-11-20 3-40 23-40 14 0 392 0 414 0 21 1 30 22 21 40z m-253 1l-37 0 0 248 37 0z m106 0l-37 0 0 87-27 67 0 93 36 0 0-87 28-67z"/>
<glyph unicode="&#57492;" d="M187 280c3 0 5 0 7 0 3 0 4 3 4 6 0 4-3 5-4 7-2 0-5 0-8 0-4 0-7 0-7 0l0-15 8 0z m48-59c-1 0-3 0-5-2-6-6-8-30 0-37 4-1 7-3 10-1 5 3 6 9 6 17 0 8-1 16-4 20-2 1-5 3-7 3z m-78-96l11 0-5 16z m169 129c2 0 4 0 5 0 2 0 3 2 3 4 4 4 4 11 4 17 0 7-2 13-5 16-2 2-5 2-7 2-3 0-8 0-8 0l0-39c0 0 5 0 8 0z m-46 32l-6-16 11 0z m8-67c-2 0-5 0-8 0-3 0-6 0-6 0l0-14 8 0c3 0 4 0 6 0 3 1 5 3 5 6 0 5-2 7-5 8z m-48 35c5 4 6 10 6 18 0 8-1 16-4 19-2 2-5 2-7 2-1 0-3-2-5-2-6-6-8-30 0-37 2 0 7-1 10 0z m61-129l11 0-5 16z m184-35c-11 22-195 339-207 358-9 18-35 18-44 0-16-27-199-342-207-358-11-20 3-40 23-40 14 0 392 0 414 0 21 1 30 22 21 40z m-131 81l-12 0-14 27-6-8 0-19-10 0 0 58 10 0 0-23 17 23 13 0-18-23z m-45 131c0 0 8 0 13 0 4 0 8 0 11 0 6-1 11-8 13-14 1-6 3-18 0-24-2-6-7-13-12-16-3-2-8-2-12-2l-15 0z m-34 0l10 0 19-57-10 0-4 16-18 0-6-16-10 0z m29-131l-10 0-9 24-11 0 0-24-10 0 0 58c0 0 6 0 13 0 5 0 9 0 13-2 3-1 6-3 8-6 1-3 3-7 3-11 0-7-5-12-8-13 5-8 11-26 11-26z m-85 123c2 4 3 5 7 7 3 1 6 3 9 3 16 2 21-13 21-29 0-8-2-16-5-21-3-6-8-9-16-9-8 0-13 3-16 8-3 5-5 13-5 19 2 8 4 16 5 22z m-48 8c0 0 7 0 13 0 5 0 10 0 13-1 3-2 6-3 8-7 1-3 3-6 3-11 0-6-5-11-8-13 3-9 10-27 10-27l-10 0-8 27-11 0 0-24-10 0z m-3-73l5-31 8 31 9 0 8-31 5 31 10 0-8-58-8 0-13 37-8-37-8 0-8 58z m8-130l-5 16-17 0-7-16-9 0 19 58 9 0 20-58z m54 0l-9 0 0 24-21 0 0-24-8 0 0 58 10 0 0-23 20 0 0 23 10 0z m-11 80c-3 5-5 13-5 19 0 8 2 16 5 21 2 3 3 5 5 7 3 1 6 3 10 3 16 1 20-13 20-29 0-8-1-16-4-21-4-6-8-9-16-9-5 0-12 3-15 9z m58-80l-35 0 0 58 33 0 0-10-24 0 0-14 16 0 0-10-16 0 0-16 27 0 0-8z m43 0l-5 16-17 0-7-16-9 0 19 58 9 0 20-58z m53 18c-2-7-5-13-11-16-4-2-8-2-13-2l-15 0 0 58c0 0 8 0 13 0 5 0 8 0 11 0 7-2 12-8 13-15 3-8 3-17 2-25z m-21 30c-3 0-8 0-8 0l0-38c0 0 5 0 8 0 2 0 3 0 5 0 1 0 3 1 3 3 3 5 3 10 3 18 0 6-1 12-5 16 0 1-3 1-6 1z"/>
<glyph unicode="&#57493;" d="M456 307c-16 75-77 135-152 149l0 40-56-56 56-56 0 40c59-13 106-58 120-115l-42 0 56-56 56 56-38 0z m-248-219c-59 13-106 58-120 115l42 0-56 56-56-56 38 0c16-75 77-134 152-149l0-38 56 56-56 56z m-54 90l198 0 0 174-198 0z m24 150l148 0 0-126-148 0z"/>
<glyph unicode="&#57494;" d="M189 149c-2 0-5 0-8 0-3 0-8 0-8 0l0-15 8 0c3 0 5 0 6 0 3 2 7 4 5 8 2 4 0 5-3 7z m41 0c-1 0-3-2-4-2-8-6-8-30 0-37 3-1 6-3 9-1 5 3 7 11 7 17 0 8-2 16-5 21-2 2-3 2-7 2z m-22 51c5 3 6 11 6 19 0 8-1 16-4 21-2 2-5 2-7 2-1 0-3-2-5-2-8-6-8-30 0-37 2-3 7-5 10-3z m-46 40c-2 0-5 0-8 0-4 0-8 0-8 0l0-14 8 0c3 0 4 0 6 0 3 0 6 3 5 8 1 3 0 6-3 6z m115-115l11 0-6 16z m57 24c-3 0-8 0-8 0l0-40c0 0 5 0 8 0 2 0 4 0 5 0 2 0 3 1 5 3 3 5 3 11 3 18 0 6-1 12-5 16-3 1-4 3-8 3z m157-63c-13 23-200 346-213 367-11 17-35 17-46 0-16-27-202-351-211-367-11-20 3-40 22-40 15 0 402 0 424 0 23 0 34 23 24 40z m-304 154c2 3 3 5 7 6 3 2 6 4 9 4 16 1 21-15 21-29 0-8-2-16-5-21-3-6-8-10-16-10-8 0-13 4-16 8-3 5-5 13-5 21 0 8 4 16 5 21z m-40-24l0-24-9 0 0 58c0 0 6 0 12 0 5 0 12 0 15-2 3-2 6-3 8-6 1-4 3-7 3-12 0-6-5-11-10-12 4-10 10-28 10-28l-10 0-9 26z m48-117l-9 26-12 0 0-26-9 0 0 58c0 0 6 0 13 0 4 0 11 0 14-2 3-1 6-3 8-6 2-3 3-7 3-11 0-7-5-12-9-13 3-10 9-27 9-27l-8 0z m53 10c-3-7-8-10-16-10-8 0-13 3-16 8-3 5-5 13-5 21 0 8 2 16 5 21 2 3 3 5 6 6 4 2 7 3 10 3 16 2 21-14 21-28 0-8-2-16-5-21z m-8 88c-3 3-5 8-6 14 0 7 0 19 0 19l0 20 9 0c0 0 0-24 0-37 0-7 2-10 7-11 4-2 11 0 12 3 2 3 2 8 2 13 0 3 0 32 0 32l10 0c0 0 0-13 0-20 0-6 0-12 0-19 0-6-2-11-7-14-3-3-8-7-14-7-5 0-10 4-13 7z m56-98l-6 16-18 0-6-16-10 0 21 58 9 0 20-58z m2 93c-13 3-16 24-13 40 1 10 6 19 19 19 11 0 18-5 21-13-3-1-7-1-10-3-1 2-1 5-5 7-3 1-8 1-11-2-3-3-5-10-5-16 0-8 0-18 5-21 3-3 11-1 15 2 1 1 1 5 1 8-3 0-6 0-11 0l0 9 19 0c0-6 0-12-1-17-2-5-5-8-8-10-5-5-12-5-16-3z m57-75c-1-7-6-15-11-16-3-2-8-2-13-2l-14 0 0 58c0 0 8 0 13 0 4 0 8 0 11 0 6-2 11-8 13-15 3-6 3-17 1-25z m19 75l-9 0 0 26-21 0 0-26-10 0 0 58 10 0 0-24 21 0 0 24 9 0z"/>
<glyph unicode="&#57495;" d="M482 93c-13 22-192 334-204 353-9 18-33 18-44 0-16-27-194-336-204-352-11-19 4-38 23-38 14 0 385 0 408 0 21-2 30 19 21 37z m-324 195c0 0 0 5 5 5 5 0 7-3 7-3l11-15c5 5 11 10 19 15 35 20 77 20 110 0l-16-26c-24 14-54 14-78 0-3-3-8-5-11-8l16-6c0 0 3-2 5-7 0-5-4-5-4-5l-64-14z m64-214c0 0-3-2-6 1-2 3 0 8 0 8l8 16c-8 2-14 5-22 10-36 21-55 57-53 96l30-2c-1-29 13-54 39-69 4-1 8-4 12-4l-1 17c0 0 0 5 3 7 3 1 6 0 6 0l45-50z m157 155c-1-3-6-5-6-5l-16 0c1-8 3-16 3-24 0-42-22-77-56-94l-16 27c26 13 40 38 40 67 0 5 0 10-2 14l-14-9c0 0-3-2-8 0-3 1-3 6-3 6l21 63 56-36c1-3 4-6 1-9z"/>
<glyph unicode="&#57496;" d="M134 410l5 0c11 0 18-7 19-21 0-10-4-23-16-35 8-7 28-13 58-18 8-2 22-3 45-5 14 0 27 10 38 27 10 4 15 16 15 39 6 8 12 13 20 13 13 0 20-8 23-24l0-2c0-8-8-21-23-40 18-5 42-6 72-6 31 0 61 3 93 9 10-1 15-6 15-14l0-5c0-6-5-11-15-14l-48-68c23-27 37-40 42-40l16 4 5-5 0-5c0-8-34-19-103-35-14-3-33-5-57-5l-18 0c-30 0-88 10-171 30l-27 2c-31 0-61-6-92-18l-11 0-3 5 0 5c0 5 14 10 42 14-10 16-15 31-15 44 0 33 23 75 67 128l5 4 0 13c2 15 8 23 19 23z m-11-258c45 0 82-8 111-24l0-5-5-5c-48 13-83 20-107 20-23 0-53-7-93-20l-7 0-4 5c0 13 35 24 105 29z m-5 178c-27-32-41-60-41-79l0-13c3-14 6-22 13-22l9 0c10 0 19 13 31 38 16 24 35 37 56 37 9 0 20-6 33-21l2 0c6 7 11 16 17 31l-1 1-5 0c-38 0-75 10-114 28z m23-122l33-5 28 42c-8 11-15 16-21 16-13 0-26-18-40-53z m69 19c-5-5-12-14-20-27l0-2c23-6 37-9 42-9l0 1c-10 20-18 32-22 37z m80 93c-24-32-37-61-37-83 0-21 8-31 24-31 14 0 29 15 43 44 18 22 32 33 46 33 18 0 37-8 58-24l37 50 0 3c-19-3-43-5-74-5-30 0-62 5-97 13z m200-168c4-2 6-5 6-8-10-16-48-29-112-40l-34-2-16 0c-28 0-43 4-43 10l0 3 3 5 53-2c51-1 99 10 143 34z m-194 26l30 0c29 0 45 3 45 8l34 44 0 4c-11 12-23 19-32 19l-3 0c-10 0-23-15-40-45-15-16-26-26-32-27z m93 8l0-4 1 0c7 0 23 4 50 12 0 4-8 14-24 27z"/>
<glyph unicode="&#57497;" d="M435 496l-358 0c-32 0-58-26-58-58l0-366c0-32 26-58 58-58l358 0c32 0 58 26 58 58l0 366c0 32-26 58-58 58z m-305-403c-24 0-45 19-45 45 0 24 19 44 45 44 24 0 44-19 44-44 0-24-20-45-44-45z m168 9l-58 0c3 162-150 144-150 144l0 55c214 1 208-199 208-199z m115 0l-61 0c-2 284-262 258-262 258l0 56c347 0 323-314 323-314z"/>
<glyph unicode="&#57498;" d="M354 451l51-51-10-8-49 51-16-16 27-27-8-8-27 27-16-16 28-27-9-8-27 27-15-14 50-51-8-8-51 49-15-14 27-27-8-10-27 27-16-14 27-27-8-8-27 27-16-16 51-51-8-8-51 51-16-16 27-27-8-8-27 27-14-16 27-27-10-8-27 27-14-15 49-51-8-8-51 50-14-15 27-27-8-8-27 27-16-16 27-27-8-8-27 27-16-16 51-49-8-10-51 51-45-44 98-98 382 382-98 98z"/>
<glyph unicode="&#57499;" d="M232 496l13 0c21-3 30-11 30-27l-14-53 0-6c0-12 8-18 22-20 18 0 42 16 75 47 32 22 64 32 95 32 11-2 17-5 17-8l0-3c-1-4-4-5-9-5l-13 0c-40 0-80-21-120-64-18-11-34-16-45-16-22 0-35 13-37 40l13 53 0 3c0 8-5 13-14 13l-8 0c-23 0-51-18-85-53 8-40 16-64 24-72 21-21 40-34 58-37 22 16 38 24 46 24l5 0c9 0 16-6 19-21-3-16-10-24-18-24l-17 2-2 0c-11 0-21-13-27-37l0-10 8-41c0-26-16-47-48-63-43-27-77-67-104-121l-14-13c-8 0-15 5-20 16 37 75 82 125 135 149 13 11 19 19 19 25l0 4c-3 20-8 30-11 30-50 10-90 27-122 53-29 24-41 38-41 46l0 8 9 10 5 0c5 0 16-8 30-24 45-39 85-58 120-63l4 0c3 7 4 12 4 18l-1 0c-27 13-48 27-63 42-12 24-22 46-27 70l-1 13c6 19 30 43 75 72 13 8 25 11 35 11z m197-152c9-2 14-6 14-14-11-32-37-64-78-95-48-29-80-43-95-43-6 0-9 6-11 18 0 9 18 20 55 32 25 12 51 32 78 60 14 29 26 42 30 42z"/>
<glyph unicode="&#57500;" d="M256 496c-133 0-240-107-240-240 0-133 107-240 240-240 133 0 240 107 240 240 0 133-107 240-240 240z m146-386c-37-36-88-60-146-60-58 0-109 22-146 60-36 37-60 88-60 146 0 58 22 109 60 146 37 36 88 60 146 60 58 0 109-22 146-60 36-37 60-88 60-146 0-58-24-109-60-146z m-196 173c0 23-17 42-41 42-23 0-42-18-42-42 0-22 19-41 42-41 24 1 41 19 41 41z m140 42c-23 0-42-18-42-42 0-22 19-41 42-41 22 0 41 19 41 41 0 24-17 42-41 42z m-90-112c-53 0-98-37-104-83l208 0c-6 46-51 83-104 83z"/>
<glyph unicode="&#57501;" d="M256 496c-133 0-240-107-240-240 0-133 107-240 240-240 133 0 240 107 240 240 0 133-107 240-240 240z m146-386c-37-36-88-60-146-60-58 0-109 22-146 60-36 37-60 88-60 146 0 58 22 109 60 146 37 36 88 60 146 60 58 0 109-22 146-60 36-37 60-88 60-146 0-58-24-109-60-146z m-197 173c0 23-19 42-42 42-22 0-41-18-41-42 0-22 17-41 41-41 23 1 42 19 42 41z m139 42c-22 0-42-18-42-42 0-22 20-41 42-41 22 0 42 19 42 41 0 24-20 42-42 42z m-94-141c-29 0-63-10-96-34-8-6-10-16-4-24 4-4 8-6 15-6 3 0 6 2 9 3 29 21 53 27 76 27 22 0 40-6 52-12 7-4 12-7 16-10 2-2 4-2 4-3 0 0 0 0 1 0 7-7 18-7 24 1 7 7 7 18-1 24-2 0-39 34-96 34z"/>
</font>
</defs>
</svg>
